<?xml version="1.0" encoding="UTF-8" standalone="no"?>
<!-- Created with Inkscape (http://www.inkscape.org/) -->

<svg
   xmlns:dc="http://purl.org/dc/elements/1.1/"
   xmlns:cc="http://creativecommons.org/ns#"
   xmlns:rdf="http://www.w3.org/1999/02/22-rdf-syntax-ns#"
   xmlns:svg="http://www.w3.org/2000/svg"
   xmlns="http://www.w3.org/2000/svg"
   xmlns:sodipodi="http://sodipodi.sourceforge.net/DTD/sodipodi-0.dtd"
   xmlns:inkscape="http://www.inkscape.org/namespaces/inkscape"
   width="210mm"
   height="297mm"
   id="svg2"
   version="1.1"
   inkscape:version="0.48.4 r9939"
   sodipodi:docname="logo.svg"
   inkscape:export-filename="/home/vincent/htdocs/feedbackspel.nl/public/images/logo.png"
   inkscape:export-xdpi="90"
   inkscape:export-ydpi="90">
  <defs
     id="defs4" />
  <sodipodi:namedview
     id="base"
     pagecolor="#ffffff"
     bordercolor="#666666"
     borderopacity="1.0"
     inkscape:pageopacity="0.0"
     inkscape:pageshadow="2"
     inkscape:zoom="1.4142136"
     inkscape:cx="319.5767"
     inkscape:cy="919.19576"
     inkscape:document-units="px"
     inkscape:current-layer="layer1"
     showgrid="false"
     inkscape:window-width="1366"
     inkscape:window-height="717"
     inkscape:window-x="0"
     inkscape:window-y="0"
     inkscape:window-maximized="1" />
  <metadata
     id="metadata7">
    <rdf:RDF>
      <cc:Work
         rdf:about="">
        <dc:format>image/svg+xml</dc:format>
        <dc:type
           rdf:resource="http://purl.org/dc/dcmitype/StillImage" />
        <dc:title></dc:title>
      </cc:Work>
    </rdf:RDF>
  </metadata>
  <g
     inkscape:label="Laag 1"
     inkscape:groupmode="layer"
     id="layer1">
    <path
       style="fill:#00709f;fill-opacity:0.94117647;stroke:none;stroke-opacity:1;stroke-width:6.49999885999999980;stroke-miterlimit:4;stroke-dasharray:none"
       d="m 41.686987,24.362229 c -6.175819,0 -11.717793,4.929281 -12.437206,11.064072 l -9.187283,78.167349 c -0.719413,6.13479 3.698948,11.06407 9.874767,11.06407 l 155.840065,0 -3.31242,19.28399 c -1.90444,11.20024 4.5001,11.22295 14.37466,0.0937 l 17.21834,-19.37776 157.74627,0 c 6.17582,0 11.74904,-4.92928 12.46845,-11.06407 l 9.15604,-78.167349 c 0.71941,-6.134791 -3.6677,-11.064072 -9.84352,-11.064072 l -341.898163,0 z"
       id="rect4033"
       inkscape:connector-curvature="0"
       inkscape:export-filename="/home/vincent/htdocs/feedbackspel.nl/public/images/logo.png"
       inkscape:export-xdpi="90"
       inkscape:export-ydpi="90" />
    <g
       transform="scale(0.99291295,1.0071376)"
       style="font-size:97.01303100999999174px;font-style:normal;font-variant:normal;font-weight:normal;font-stretch:normal;line-height:125%;letter-spacing:0px;word-spacing:0px;fill:#ffffff;fill-opacity:1;stroke:none;font-family:Vijaya;-inkscape-font-specification:Vijaya"
       id="text2985"
       inkscape:export-filename="/home/vincent/htdocs/feedbackspel.nl/public/images/logo.png"
       inkscape:export-xdpi="90"
       inkscape:export-ydpi="90">
      <path
         d="m 73.842045,39.140928 -5.115922,10.752909 c -4.452779,-2.368423 -9.205529,-3.552663 -14.258263,-3.552723 -0.663197,6e-5 -2.257974,0.04743 -4.784334,0.142109 l 0,21.647927 21.790037,0 -6.158054,10.75291 c -2.90537,-1.357902 -5.431748,-2.273714 -7.579143,-2.74744 -1.673752,-0.347347 -4.35803,-0.599985 -8.05284,-0.757914 l 0,11.321345 c -1.8e-5,7.231777 0.773685,13.610879 2.321113,19.137339 l -14.826699,0 c 1.515821,-5.68435 2.273735,-12.300308 2.273743,-19.847884 l 0,-28.611265 c -8e-6,-7.263289 -0.757922,-13.342388 -2.273743,-18.237313 l 36.664105,0"
         style="fill:#ffffff;font-family:Narkisim;-inkscape-font-specification:Narkisim"
         id="path3005" />
      <path
         d="m 115.29049,79.120908 -0.0947,4.736964 -26.053309,0 c 1.357916,10.389754 6.173825,15.58462 14.447739,15.584613 3.15795,7e-6 6.69488,-0.852646 10.6108,-2.557961 l -3.50535,8.573906 c -3.60012,0.91581 -6.55283,1.37372 -8.85812,1.37372 -7.01073,0 -12.505603,-2.25795 -16.48464,-6.77386 -3.821156,-4.294837 -5.73173,-9.979189 -5.731727,-17.053071 -3e-6,-6.568562 1.531614,-12.142384 4.594856,-16.721485 3.536922,-5.242196 8.43178,-7.863313 14.684589,-7.863361 5.526432,4.8e-5 9.758112,2.163259 12.695062,6.489642 2.58951,3.758029 3.82112,8.494988 3.69484,14.210893 m -7.72126,-3.221136 c 0.0947,-2.873726 -0.64741,-5.352734 -2.22637,-7.437034 -1.67375,-2.305283 -3.91592,-3.457943 -6.72649,-3.457984 -3.094836,4.1e-5 -5.479105,1.326389 -7.152816,3.97905 -1.389523,2.242198 -2.084277,5.005424 -2.084264,8.289688 l 18.14257,0 0.0474,-1.37372"
         style="fill:#ffffff;font-family:Narkisim;-inkscape-font-specification:Narkisim"
         id="path3007" />
      <path
         d="m 157.35473,79.120908 -0.0947,4.736964 -26.05331,0 c 1.35792,10.389754 6.17383,15.58462 14.44775,15.584613 3.15794,7e-6 6.69487,-0.852646 10.6108,-2.557961 l -3.50536,8.573906 c -3.60012,0.91581 -6.55283,1.37372 -8.85812,1.37372 -7.01073,0 -12.5056,-2.25795 -16.48464,-6.77386 -3.82115,-4.294837 -5.73173,-9.979189 -5.73172,-17.053071 -1e-5,-6.568562 1.53161,-12.142384 4.59485,-16.721485 3.53692,-5.242196 8.43178,-7.863313 14.68459,-7.863361 5.52643,4.8e-5 9.75812,2.163259 12.69507,6.489642 2.5895,3.758029 3.82111,8.494988 3.69483,14.210893 m -7.72125,-3.221136 c 0.0947,-2.873726 -0.64742,-5.352734 -2.22638,-7.437034 -1.67375,-2.305283 -3.91591,-3.457943 -6.72649,-3.457984 -3.09483,4.1e-5 -5.4791,1.326389 -7.15281,3.97905 -1.38953,2.242198 -2.08428,5.005424 -2.08427,8.289688 l 18.14258,0 0.0474,-1.37372"
         style="fill:#ffffff;font-family:Narkisim;-inkscape-font-specification:Narkisim"
         id="path3009" />
      <path
         d="m 205.24543,105.83739 -11.08449,0 0,-6.631753 -5.82647,6.489643 c -2.17903,0.75791 -4.02644,1.13687 -5.54225,1.13687 -6.03175,0 -10.6266,-1.95794 -13.78456,-5.87384 -2.93693,-3.568501 -4.40538,-8.43178 -4.40538,-14.589847 0,-7.452797 2.16321,-13.863482 6.48964,-19.232075 4.64221,-5.810632 10.59499,-8.715967 17.85836,-8.716015 1.95791,4.8e-5 3.6948,0.252686 5.21066,0.757915 l 0,-3.221136 c -4e-5,-5.210606 -0.61584,-9.821247 -1.84742,-13.831936 l 12.93191,-2.6527 c -1.23165,4.579127 -1.84745,9.742413 -1.84741,15.489873 l 0,36.853583 c -4e-5,5.27383 0.61576,9.947628 1.84741,14.021418 m -11.08449,-9.142344 0,-28.895483 c -2.14746,-1.863166 -4.78437,-2.794768 -7.91073,-2.794809 -8.08444,4.1e-5 -12.12665,5.842291 -12.12663,17.526768 -2e-5,11.273988 4.20009,16.91097 12.60032,16.910963 2.36846,7e-6 4.84747,-0.915806 7.43704,-2.747439"
         style="fill:#ffffff;font-family:Narkisim;-inkscape-font-specification:Narkisim"
         id="path3011" />
      <path
         d="m 253.42036,77.936667 c -4e-5,10.737136 -3.37907,18.300482 -10.1371,22.690063 -5.36859,3.47377 -13.54774,5.21066 -24.53748,5.21066 l -5.96857,0 c 1.2316,-3.94747 1.84741,-9.552872 1.84741,-16.816227 l 0,-28.990222 c 0,-8.242264 -0.61581,-14.210833 -1.84741,-17.905725 l 12.93191,-2.6527 c -1.23163,5.558099 -1.84743,9.505565 -1.84742,11.842411 l 0,15.96357 7.29493,-8.147579 c 2.27372,-0.473649 4.21587,-0.710497 5.82647,-0.710545 5.558,4.8e-5 9.77389,1.926411 12.64769,5.779097 2.52634,3.410653 3.78953,7.989714 3.78957,13.737197 m -9.5213,3.884311 c -3e-5,-9.758113 -3.71065,-14.637182 -11.13186,-14.63722 -2.62114,3.8e-5 -5.58964,0.821111 -8.9055,2.463221 l 0,29.084961 c 2.33689,0.378964 4.59484,0.568443 6.77386,0.568436 8.84231,7e-6 13.26347,-5.826454 13.2635,-17.479398"
         style="fill:#ffffff;font-family:Narkisim;-inkscape-font-specification:Narkisim"
         id="path3013" />
      <path
         d="m 293.02139,105.83739 -11.0845,0 0,-4.50012 -7.34229,5.44751 -2.17901,0.0474 c -3.78958,0.0947 -6.93176,-0.72634 -9.42655,-2.46322 -2.81061,-1.95794 -4.21591,-4.78433 -4.2159,-8.479168 -1e-5,-3.315862 1.43687,-6.236987 4.31063,-8.763384 2.14742,-1.863186 5.30539,-3.647441 9.47393,-5.35277 3.12638,-1.200006 6.25277,-2.384246 9.37919,-3.552723 l 0,-2.510592 c -2e-5,-6.600133 -2.88957,-9.900215 -8.66864,-9.900255 -2.58956,4e-5 -5.96859,1.247439 -10.13711,3.742202 l 2.60533,-8.905493 c 3.97904,-1.484203 7.42123,-2.226326 10.32659,-2.226374 6.25276,4.8e-5 10.5634,2.14747 12.93191,6.442272 1.76843,3.189594 2.65266,8.226561 2.6527,15.110916 -4e-5,1.421114 -0.0474,3.584326 -0.14211,6.489642 -0.0948,2.873775 -0.14214,5.005406 -0.14211,6.394902 -3e-5,5.621205 0.55261,9.947625 1.65794,12.979285 m -11.0845,-6.915971 0,-12.884543 -12.174,0 c -0.97898,2.968514 -1.46847,5.352784 -1.46845,7.152816 -2e-5,4.168537 2.73163,6.2528 8.19494,6.252793 1.51581,7e-6 3.33165,-0.173682 5.44751,-0.521066"
         style="fill:#ffffff;font-family:Narkisim;-inkscape-font-specification:Narkisim"
         id="path3015" />
      <path
         d="m 334.32773,96.268719 -3.64746,8.905491 c -3.09485,1.10529 -6.11071,1.65794 -9.0476,1.65794 -6.91599,0 -12.37928,-2.14742 -16.3899,-6.44227 -3.9159,-4.168521 -5.87384,-9.726554 -5.87384,-16.674117 0,-7.579113 2.25795,-13.674001 6.77386,-18.284682 4.54747,-4.64218 10.61078,-6.963291 18.18995,-6.963338 3.72638,4.7e-5 6.71066,0.331635 8.95286,0.994763 l -0.4737,10.752909 c -2.14746,-1.926328 -3.71065,-3.173728 -4.68959,-3.742202 -1.67376,-0.978932 -3.60012,-1.468418 -5.7791,-1.468459 -4.26329,4.1e-5 -7.64232,1.705346 -10.1371,5.115921 -2.2106,3.06327 -3.31589,6.805468 -3.31588,11.226606 -10e-6,5.115941 1.13686,9.300255 3.41062,12.552956 2.6211,3.69484 6.37909,5.542255 11.27397,5.542248 3.31585,7e-6 6.90015,-1.057914 10.75291,-3.173766"
         style="fill:#ffffff;font-family:Narkisim;-inkscape-font-specification:Narkisim"
         id="path3017" />
      <path
         d="m 379.61309,105.83739 -13.83194,0 c 0.22103,-1.48425 -1.81586,-5.6212 -6.11068,-12.41085 -2.58956,-3.947454 -5.19489,-7.89492 -7.81599,-11.842411 l 0,12.505586 c -2e-5,3.284304 0.0631,5.321197 0.18948,6.110685 0.15788,1.20003 0.71053,3.07903 1.65794,5.63699 l -12.93192,0 c 0.91581,-2.46322 1.48425,-4.75275 1.70531,-6.868601 0.0947,-1.073704 0.1421,-3.505344 0.14211,-7.294925 l 0,-38.937848 c -10e-6,-3.821094 -0.61581,-7.358024 -1.84742,-10.6108 l 12.93192,-2.6527 c -1.23163,4.168591 -1.84744,8.747652 -1.84742,13.737197 l 0,27.90072 c 2.33688,-3.315847 4.67378,-6.647509 7.01071,-9.994995 3.18953,-5.052722 4.73693,-8.952819 4.64222,-11.700302 l 15.48988,0 c -3.69488,2.810642 -6.91601,6.031775 -9.66341,9.663407 -0.44215,0.568472 -3.07906,4.484359 -7.91073,11.747672 4.26324,6.631769 7.08962,10.958192 8.47916,12.979282 3.31584,4.736972 6.55276,8.747603 9.71078,12.031893"
         style="fill:#ffffff;font-family:Narkisim;-inkscape-font-specification:Narkisim"
         id="path3019" />
    </g>
    <g
       transform="scale(0.99291295,1.0071376)"
       style="font-size:97.01303100999999174px;font-style:normal;font-variant:normal;font-weight:normal;font-stretch:normal;line-height:125%;letter-spacing:0px;word-spacing:0px;fill:#ffffff;fill-opacity:1;stroke:none;font-family:Poiret One;-inkscape-font-specification:Poiret One"
       id="text4029"
       inkscape:export-filename="/home/vincent/htdocs/feedbackspel.nl/public/images/logo.png"
       inkscape:export-xdpi="90"
       inkscape:export-ydpi="90">
      <path
         d="m 425.17425,93.194653 c -3e-5,4.294855 -1.65796,7.658097 -4.97381,10.089737 -2.96852,2.21058 -6.66335,3.31587 -11.0845,3.31587 -2.14743,0 -5.70015,-0.53685 -10.65817,-1.61057 l 0,-11.51082 c 4.35801,4.358015 8.02125,6.53702 10.98976,6.53701 1.64213,1e-5 3.07901,-0.536849 4.31064,-1.610567 1.26317,-1.073703 1.89477,-2.431632 1.89478,-4.073789 -10e-6,-1.926352 -1.38952,-4.073774 -4.16852,-6.442272 -5.08436,-4.263246 -7.67389,-6.458037 -7.76863,-6.58438 -2.8106,-2.968471 -4.2159,-6.158023 -4.21589,-9.568668 -10e-6,-4.010592 1.67372,-7.326464 5.02118,-9.947625 3.06322,-2.400016 6.66331,-3.600046 10.80028,-3.600093 2.71584,4.7e-5 5.62117,0.600062 8.71601,1.800046 l 0,9.000232 c -3.25274,-2.810559 -6.1107,-4.215857 -8.5739,-4.215898 -1.67375,4.1e-5 -3.12642,0.442157 -4.35801,1.32635 -1.38952,1.010591 -2.08428,2.32115 -2.08427,3.931681 -1e-5,2.084297 1.3895,4.326458 4.16853,6.726489 l 7.76862,6.63175 c 2.81058,2.968517 4.21587,6.237019 4.2159,9.805517"
         style="fill:#ffffff;font-family:Narkisim;-inkscape-font-specification:Narkisim"
         id="path3022" />
      <path
         d="m 472.40179,83.862833 c -5e-5,6.505446 -1.23166,11.716102 -3.69483,15.631982 -2.96854,4.736965 -7.53181,7.105445 -13.68983,7.105445 -4.26329,0 -8.32129,-1.54741 -12.174,-4.64222 l 0,6.53701 c -10e-6,4.16852 0.61579,8.02125 1.84742,11.55819 l -12.93192,0 c 1.23161,-4.0738 1.84741,-8.82655 1.84742,-14.25826 l 0,-32.353469 c -10e-6,-5.242203 -0.61581,-9.994953 -1.84742,-14.258263 l 11.0845,0 0,8.05284 c 1.83161,-2.147384 3.66323,-4.279016 5.49488,-6.394902 1.92634,-1.768421 4.35798,-2.652653 7.29493,-2.6527 5.77906,4.7e-5 10.18443,3.000121 13.21613,9.000232 2.36843,4.736998 3.55267,10.295031 3.55272,16.674115 m -9.5213,-1.894786 c -4e-5,-3.726385 -0.85269,-7.026467 -2.55796,-9.900256 -2.02114,-3.410577 -4.75278,-5.115883 -8.19495,-5.115921 -2.62114,3.8e-5 -5.71595,0.93164 -9.28445,2.794809 l 0,25.20065 c 2.30531,2.842187 5.06853,4.263275 8.28969,4.263268 7.83175,7e-6 11.74763,-5.747504 11.74767,-17.24255"
         style="fill:#ffffff;font-family:Narkisim;-inkscape-font-specification:Narkisim"
         id="path3024" />
      <path
         d="m 514.65551,78.88902 -0.0947,4.736964 -26.05331,0 c 1.35792,10.389754 6.17383,15.58462 14.44775,15.584613 3.15794,7e-6 6.69487,-0.852646 10.6108,-2.55796 l -3.50536,8.573903 c -3.60012,0.91581 -6.55283,1.37372 -8.85812,1.37372 -7.01073,0 -12.5056,-2.25795 -16.48464,-6.773857 -3.82115,-4.294838 -5.73173,-9.97919 -5.73172,-17.053072 -1e-5,-6.568561 1.53161,-12.142384 4.59485,-16.721485 3.53692,-5.242195 8.43178,-7.863313 14.68459,-7.86336 5.52643,4.7e-5 9.75812,2.163259 12.69507,6.489641 2.5895,3.758029 3.82111,8.494988 3.69483,14.210893 m -7.72125,-3.221136 c 0.0947,-2.873725 -0.64742,-5.352734 -2.22638,-7.437034 -1.67375,-2.305283 -3.91591,-3.457943 -6.72649,-3.457984 -3.09483,4.1e-5 -5.4791,1.32639 -7.15281,3.97905 -1.38953,2.242198 -2.08428,5.005424 -2.08427,8.289688 l 18.14258,0 0.0474,-1.37372"
         style="fill:#ffffff;font-family:Narkisim;-inkscape-font-specification:Narkisim"
         id="path3026" />
      <path
         d="m 534.97709,105.6055 -12.93191,0 c 1.2316,-4.70538 1.84741,-9.42655 1.84741,-14.163524 l 0,-34.437732 c 0,-4.83165 -0.61581,-9.868617 -1.84741,-15.110916 l 12.93191,-2.6527 c -1.23163,6.473911 -1.84743,12.221422 -1.84742,17.24255 l 0,36.0483 c -1e-5,4.515914 0.61579,8.873922 1.84742,13.074022"
         style="fill:#ffffff;font-family:Narkisim;-inkscape-font-specification:Narkisim"
         id="path3028" />
      <path
         d="m 556.71976,99.210597 -0.18948,1.563203 -5.9212,6.3949 -1.18424,0 -7.15282,-5.92121 0,-1.18424 6.30016,-6.679119 1.13687,0 7.01071,5.826466"
         style="fill:#ffffff;font-family:Narkisim;-inkscape-font-specification:Narkisim"
         id="path3030" />
      <path
         d="m 603.52096,105.6055 -12.93191,0 c 1.23158,-2.93692 1.84738,-7.215969 1.84741,-12.837174 l 0,-15.916201 c -3e-5,-3.252683 -0.39477,-5.573793 -1.18424,-6.963337 -1.07374,-1.957908 -3.14221,-2.93688 -6.20542,-2.936918 -2.30535,3.8e-5 -5.43174,1.02638 -9.37919,3.079027 l 0,21.2216 c -10e-6,5.621207 0.61579,10.405533 1.84742,14.353003 l -12.93192,0 c 0.88423,-2.87376 1.42109,-5.05276 1.61057,-6.537012 0.15789,-1.136863 0.23684,-3.426394 0.23685,-6.868598 l 0,-17.479399 c -10e-6,-5.652741 -0.61581,-10.831817 -1.84742,-15.537243 l 11.0845,0 0,8.384427 7.15282,-8.194948 c 2.24214,-0.789447 4.31061,-1.184194 6.20542,-1.184241 4.95799,4.7e-5 8.46334,1.95799 10.51606,5.873835 1.61053,3.126435 2.41581,7.784446 2.41585,13.974045 l 0,14.921438 c -4e-5,5.400147 0.52103,9.616046 1.5632,12.647696"
         style="fill:#ffffff;font-family:Narkisim;-inkscape-font-specification:Narkisim"
         id="path3032" />
      <path
         d="m 624.41098,105.6055 -12.93191,0 c 1.2316,-4.70538 1.84741,-9.42655 1.84741,-14.163524 l 0,-34.437732 c 0,-4.83165 -0.61581,-9.868617 -1.84741,-15.110916 l 12.93191,-2.6527 c -1.23163,6.473911 -1.84743,12.221422 -1.84742,17.24255 l 0,36.0483 c -1e-5,4.515914 0.61579,8.873922 1.84742,13.074022"
         style="fill:#ffffff;font-family:Narkisim;-inkscape-font-specification:Narkisim"
         id="path3034" />
    </g>
  </g>
</svg>
