<?xml version="1.0" encoding="UTF-8" standalone="no"?>
<!-- The icon can be used freely in both personal and commercial projects with no attribution required, but always appreciated. 
You may NOT sub-license, resell, rent, redistribute or otherwise transfer the icon without express written permission from iconmonstr.com -->

<svg
   xmlns:dc="http://purl.org/dc/elements/1.1/"
   xmlns:cc="http://creativecommons.org/ns#"
   xmlns:rdf="http://www.w3.org/1999/02/22-rdf-syntax-ns#"
   xmlns:svg="http://www.w3.org/2000/svg"
   xmlns="http://www.w3.org/2000/svg"
   xmlns:sodipodi="http://sodipodi.sourceforge.net/DTD/sodipodi-0.dtd"
   xmlns:inkscape="http://www.inkscape.org/namespaces/inkscape"
   sodipodi:docname="banner.svg"
   inkscape:version="0.48.5 r10040"
   id="svg2"
   xml:space="preserve"
   enable-background="new 0 0 512 512"
   viewBox="0 0 977.33592 456.71988"
   height="456.71988"
   width="977.33594"
   y="0px"
   x="0px"
   version="1.1"><metadata
     id="metadata9"><rdf:RDF><cc:Work
         rdf:about=""><dc:format>image/svg+xml</dc:format><dc:type
           rdf:resource="http://purl.org/dc/dcmitype/StillImage" /></cc:Work></rdf:RDF></metadata><defs
     id="defs7"><marker
       inkscape:stockid="DotS"
       orient="auto"
       refY="0"
       refX="0"
       id="DotS"
       style="overflow:visible"><path
         id="path3941"
         d="m -2.5,-1 c 0,2.76 -2.24,5 -5,5 -2.76,0 -5,-2.24 -5,-5 0,-2.76 2.24,-5 5,-5 2.76,0 5,2.24 5,5 z"
         style="fill-rule:evenodd;stroke:#000000;stroke-width:1pt"
         transform="matrix(0.2,0,0,0.2,1.48,0.2)"
         inkscape:connector-curvature="0" /></marker><marker
       inkscape:stockid="DotM"
       orient="auto"
       refY="0"
       refX="0"
       id="DotM"
       style="overflow:visible"><path
         id="path3938"
         d="m -2.5,-1 c 0,2.76 -2.24,5 -5,5 -2.76,0 -5,-2.24 -5,-5 0,-2.76 2.24,-5 5,-5 2.76,0 5,2.24 5,5 z"
         style="fill-rule:evenodd;stroke:#000000;stroke-width:1pt"
         transform="matrix(0.4,0,0,0.4,2.96,0.4)"
         inkscape:connector-curvature="0" /></marker><marker
       inkscape:stockid="Arrow2Send"
       orient="auto"
       refY="0"
       refX="0"
       id="Arrow2Send"
       style="overflow:visible"><path
         id="path3907"
         style="fill-rule:evenodd;stroke-width:0.625;stroke-linejoin:round"
         d="M 8.7185878,4.0337352 -2.2072895,0.01601326 8.7185884,-4.0017078 c -1.7454984,2.3720609 -1.7354408,5.6174519 -6e-7,8.035443 z"
         transform="matrix(-0.3,0,0,-0.3,0.69,0)"
         inkscape:connector-curvature="0" /></marker><marker
       inkscape:stockid="Arrow2Mend"
       orient="auto"
       refY="0"
       refX="0"
       id="Arrow2Mend"
       style="overflow:visible"><path
         id="path3901"
         style="fill-rule:evenodd;stroke-width:0.625;stroke-linejoin:round"
         d="M 8.7185878,4.0337352 -2.2072895,0.01601326 8.7185884,-4.0017078 c -1.7454984,2.3720609 -1.7354408,5.6174519 -6e-7,8.035443 z"
         transform="scale(-0.6,-0.6)"
         inkscape:connector-curvature="0" /></marker></defs><sodipodi:namedview
     pagecolor="#ffffff"
     bordercolor="#666666"
     borderopacity="1"
     objecttolerance="10"
     gridtolerance="10"
     guidetolerance="10"
     inkscape:pageopacity="0"
     inkscape:pageshadow="2"
     inkscape:window-width="1920"
     inkscape:window-height="1148"
     id="namedview5"
     showgrid="false"
     fit-margin-top="10"
     fit-margin-left="10"
     fit-margin-right="10"
     fit-margin-bottom="10"
     inkscape:zoom="0.32593203"
     inkscape:cx="814.51616"
     inkscape:cy="46.277521"
     inkscape:window-x="-5"
     inkscape:window-y="-5"
     inkscape:window-maximized="1"
     inkscape:current-layer="svg2"
     showguides="true"
     inkscape:guide-bbox="true"
     inkscape:showpageshadow="false" /><g
     style="font-size:40px;font-style:normal;font-variant:normal;font-weight:normal;font-stretch:normal;line-height:125%;letter-spacing:-18px;word-spacing:0px;fill:#ffffff;fill-opacity:1;stroke:none;font-family:Comic Sans MS;-inkscape-font-specification:Comic Sans MS"
     id="text2995-9-6-0-8-4-34-4-4-3-49-9"><path
       d="m 9.9999901,418.10269 0,-103.07812 69.5390629,0 0,12.16406 -55.898438,0 0,31.92187 48.375,0 0,12.16407 -48.375,0 0,46.82812 z"
       style="fill:#ffffff"
       id="path3821" /><path
       d="m 141.82812,394.05582 13.07812,1.61718 c -2.06257,7.64064 -5.88288,13.57033 -11.46094,17.78907 -5.57818,4.21875 -12.70317,6.32812 -21.375,6.32812 -10.9219,0 -19.58205,-3.36328 -25.980466,-10.08984 -6.398446,-6.72655 -9.597662,-16.16013 -9.597656,-28.30078 -6e-6,-12.56245 3.234366,-22.31244 9.703125,-29.25 6.468727,-6.93743 14.859347,-10.40618 25.171877,-10.40625 9.98432,7e-5 18.14056,3.39851 24.46875,10.19531 6.32805,6.79693 9.49211,16.35942 9.49219,28.6875 -8e-5,0.75004 -0.0235,1.87503 -0.0703,3.375 l -55.687497,0 c 0.468727,8.20315 2.789037,14.48439 6.960937,18.84375 4.17185,4.35939 9.37497,6.53907 15.60938,6.53906 4.64057,1e-5 8.60151,-1.21874 11.88281,-3.65625 3.28119,-2.43748 5.88275,-6.3281 7.80469,-11.67187 z m -41.55469,-20.46094 41.69531,0 c -0.56256,-6.2812 -2.15631,-10.99213 -4.78125,-14.13281 -4.0313,-4.87494 -9.25786,-7.31244 -15.67969,-7.3125 -5.81253,6e-5 -10.69925,1.94537 -14.66015,5.83593 -3.96096,3.89069 -6.15237,9.09381 -6.57422,15.60938 z"
       style="fill:#ffffff"
       id="path3823" /><path
       d="m 216.98437,394.05582 13.07812,1.61718 c -2.06257,7.64064 -5.88288,13.57033 -11.46094,17.78907 -5.57818,4.21875 -12.70317,6.32812 -21.375,6.32812 -10.9219,0 -19.58205,-3.36328 -25.98047,-10.08984 -6.39844,-6.72655 -9.59766,-16.16013 -9.59765,-28.30078 -1e-5,-12.56245 3.23436,-22.31244 9.70312,-29.25 6.46873,-6.93743 14.85935,-10.40618 25.17188,-10.40625 9.98432,7e-5 18.14056,3.39851 24.46875,10.19531 6.32805,6.79693 9.49211,16.35942 9.49219,28.6875 -8e-5,0.75004 -0.0235,1.87503 -0.0703,3.375 l -55.6875,0 c 0.46873,8.20315 2.78904,14.48439 6.96094,18.84375 4.17185,4.35939 9.37497,6.53907 15.60938,6.53906 4.64057,1e-5 8.60151,-1.21874 11.88281,-3.65625 3.28119,-2.43748 5.88275,-6.3281 7.80469,-11.67187 z m -41.55469,-20.46094 41.69531,0 c -0.56256,-6.2812 -2.15631,-10.99213 -4.78125,-14.13281 -4.0313,-4.87494 -9.25786,-7.31244 -15.67969,-7.3125 -5.81253,6e-5 -10.69925,1.94537 -14.66015,5.83593 -3.96096,3.89069 -6.15237,9.09381 -6.57422,15.60938 z"
       style="fill:#ffffff"
       id="path3825" /><path
       d="m 289.46874,418.10269 0,-9.42187 c -4.73443,7.40625 -11.69536,11.10937 -20.88281,11.10937 -5.95316,0 -11.42581,-1.64062 -16.41797,-4.92187 -4.9922,-3.28125 -8.85939,-7.86327 -11.60156,-13.7461 -2.7422,-5.88279 -4.11329,-12.6445 -4.11328,-20.28515 -1e-5,-7.45308 1.24218,-14.2148 3.72656,-20.28516 2.48436,-6.07025 6.21092,-10.72259 11.17969,-13.95703 4.96872,-3.2343 10.5234,-4.85149 16.66406,-4.85156 4.49996,7e-5 8.50777,0.94929 12.02344,2.84765 3.51557,1.89851 6.37494,4.37117 8.57812,7.41797 l 0,-36.98437 12.58594,0 0,103.07812 z m -40.00781,-37.26562 c -2e-5,9.56252 2.0156,16.71095 6.04687,21.44531 4.03122,4.73439 8.78903,7.10157 14.27344,7.10156 5.53121,1e-5 10.23042,-2.26171 14.09766,-6.78515 3.86713,-4.52342 5.80072,-11.42576 5.80078,-20.70704 -6e-5,-10.2187 -1.96881,-17.71869 -5.90625,-22.5 -3.93755,-4.78118 -8.78911,-7.1718 -14.55469,-7.17187 -5.62503,7e-5 -10.32425,2.29694 -14.09766,6.89062 -3.77345,4.59381 -5.66017,11.83599 -5.66015,21.72657 z"
       style="fill:#ffffff"
       id="path3827" /><path
       d="m 327.85155,418.10269 -11.74218,0 0,-103.07812 12.65625,0 0,36.77343 c 5.34372,-6.70305 12.16402,-10.05461 20.46093,-10.05468 4.59371,7e-5 8.94136,0.92585 13.04297,2.77734 4.1015,1.85163 7.4765,4.45319 10.125,7.80469 2.64837,3.35162 4.72259,7.39459 6.22266,12.1289 1.49992,4.73443 2.24992,9.79692 2.25,15.1875 -8e-5,12.7969 -3.16414,22.68752 -9.49219,29.67188 -6.32818,6.98438 -13.92193,10.47656 -22.78125,10.47656 -8.81253,0 -15.72659,-3.67968 -20.74219,-11.03906 z m -0.14062,-37.89844 c -2e-5,8.95316 1.21873,15.4219 3.65625,19.40625 3.98434,6.51564 9.37496,9.77345 16.17187,9.77344 5.53121,1e-5 10.31245,-2.40233 14.34375,-7.20703 4.03119,-4.80467 6.04682,-11.96482 6.04688,-21.48047 -6e-5,-9.74995 -1.93366,-16.94526 -5.80078,-21.58594 -3.86724,-4.64056 -8.54302,-6.96087 -14.02735,-6.96093 -5.53128,6e-5 -10.31253,2.4024 -14.34375,7.20703 -4.03127,4.80474 -6.04689,11.75395 -6.04687,20.84765 z"
       style="fill:#ffffff"
       id="path3829" /><path
       d="m 440.06249,408.89175 c -4.68755,3.98438 -9.19927,6.79688 -13.53516,8.4375 -4.33597,1.64063 -8.98831,2.46094 -13.95703,2.46094 -8.20314,0 -14.50783,-2.0039 -18.91406,-6.01172 -4.40626,-4.0078 -6.60938,-9.12889 -6.60937,-15.36328 -1e-5,-3.65623 0.83202,-6.99607 2.49609,-10.01953 1.66405,-3.0234 3.84374,-5.44918 6.53906,-7.27734 2.6953,-1.82809 5.73045,-3.2109 9.10547,-4.14844 2.48435,-0.65621 6.23435,-1.28902 11.25,-1.89844 10.21871,-1.2187 17.74214,-2.67183 22.57031,-4.35937 0.0468,-1.73433 0.0703,-2.83589 0.0703,-3.30469 -6e-5,-5.15619 -1.19537,-8.789 -3.58594,-10.89844 -3.23443,-2.85931 -8.03911,-4.28899 -14.41406,-4.28906 -5.95316,7e-5 -10.34769,1.04303 -13.1836,3.12891 -2.83596,2.08599 -4.93361,5.7774 -6.29297,11.07421 l -12.375,-1.6875 c 1.12499,-5.29681 2.97655,-9.57415 5.55469,-12.83203 2.57811,-3.25774 6.30467,-5.76555 11.17969,-7.52343 4.87497,-1.75774 10.5234,-2.63665 16.94531,-2.63672 6.37495,7e-5 11.55463,0.75007 15.53906,2.25 3.98432,1.50007 6.914,3.38679 8.78907,5.66015 1.87493,2.27351 3.18743,5.1446 3.9375,8.61328 0.4218,2.15631 0.63274,6.04693 0.63281,11.67188 l 0,16.875 c -7e-5,11.76564 0.26946,19.20704 0.80859,22.32422 0.53899,3.11719 1.6054,6.10547 3.19922,8.96484 l -13.21875,0 c -1.31256,-2.625 -2.15631,-5.69531 -2.53125,-9.21094 z m -1.05469,-28.26562 c -4.5938,1.87503 -11.48442,3.46878 -20.67187,4.78125 -5.20316,0.75003 -8.88284,1.59378 -11.03906,2.53125 -2.15628,0.93753 -3.82034,2.30862 -4.99219,4.11328 -1.1719,1.80471 -1.75783,3.80862 -1.75781,6.01172 -2e-5,3.37502 1.27732,6.18751 3.83203,8.4375 2.55466,2.25001 6.29294,3.37501 11.21484,3.375 4.87496,1e-5 9.21089,-1.0664 13.00781,-3.19922 3.79683,-2.1328 6.58589,-5.05076 8.36719,-8.75391 1.35932,-2.85935 2.03901,-7.07809 2.03906,-12.65625 z"
       style="fill:#ffffff"
       id="path3831" /><path
       d="m 515.21874,390.75113 12.44531,1.61719 c -1.35944,8.57814 -4.83991,15.29298 -10.4414,20.14453 -5.60162,4.85156 -12.48052,7.27734 -20.63672,7.27734 -10.21878,0 -18.43362,-3.33984 -24.64453,-10.01953 -6.21095,-6.67967 -9.31642,-16.25388 -9.31641,-28.72266 -1e-5,-8.06245 1.33593,-15.11713 4.00781,-21.16406 2.67187,-6.04681 6.73827,-10.58196 12.19922,-13.60547 5.46091,-3.02336 11.40231,-4.53508 17.82422,-4.53515 8.10933,7e-5 14.74213,2.05085 19.89844,6.15234 5.15618,4.10163 8.46087,9.92584 9.91406,17.47266 l -12.30469,1.89843 c -1.17193,-5.01556 -3.24615,-8.789 -6.22265,-11.32031 -2.97661,-2.53118 -6.57427,-3.79681 -10.79297,-3.79687 -6.37504,6e-5 -11.55472,2.28522 -15.53906,6.85547 -3.9844,4.57036 -5.97659,11.80082 -5.97657,21.6914 -2e-5,10.03128 1.92186,17.32033 5.76563,21.86719 3.84372,4.54689 8.85934,6.82032 15.04687,6.82031 4.96871,1e-5 9.11714,-1.52343 12.44532,-4.57031 3.32806,-3.04686 5.43744,-7.73435 6.32812,-14.0625 z"
       style="fill:#ffffff"
       id="path3833" /><path
       d="m 533.56249,418.10269 0,-103.07812 12.65625,0 0,58.78125 29.95313,-30.375 16.38281,0 -28.54688,27.70312 31.42969,46.96875 -15.60937,0 -24.67969,-38.17969 -8.92969,8.57813 0,29.60156 z"
       style="fill:#ffffff"
       id="path3835" /><path
       d="m 595.42968,395.81363 12.51562,-1.96875 c 0.70311,5.01564 2.66014,8.85939 5.8711,11.53125 3.21091,2.67188 7.69918,4.00782 13.46484,4.00781 5.81246,1e-5 10.12495,-1.18358 12.9375,-3.55078 2.81245,-2.36717 4.2187,-5.14451 4.21875,-8.33203 -5e-5,-2.85935 -1.24224,-5.10935 -3.72656,-6.75 -1.73443,-1.12497 -6.04692,-2.55466 -12.9375,-4.28906 -9.28128,-2.34372 -15.71487,-4.37106 -19.30078,-6.08203 -3.58596,-1.7109 -6.3047,-4.07809 -8.15625,-7.10157 -1.85157,-3.02339 -2.77735,-6.36323 -2.77735,-10.01953 0,-3.32807 0.76171,-6.41009 2.28516,-9.24609 1.52343,-2.83587 3.59764,-5.19134 6.22266,-7.06641 1.96873,-1.45305 4.65232,-2.68352 8.05078,-3.6914 3.39841,-1.00774 7.04293,-1.51165 10.93359,-1.51172 5.85934,7e-5 11.00386,0.84382 15.43359,2.53125 4.42964,1.68757 7.69917,3.97272 9.8086,6.85547 2.10931,2.88287 3.56243,6.73834 4.35937,11.5664 l -12.375,1.6875 c -0.56255,-3.84369 -2.19145,-6.84369 -4.88672,-9 -2.69535,-2.15618 -6.50394,-3.23431 -11.42578,-3.23437 -5.81253,6e-5 -9.96096,0.961 -12.44531,2.88281 -2.48439,1.92194 -3.72658,4.17193 -3.72656,6.75 -2e-5,1.64068 0.5156,3.11724 1.54687,4.42969 1.03123,1.35942 2.64842,2.48442 4.85157,3.375 1.26559,0.46879 4.99215,1.54692 11.17968,3.23437 8.95308,2.39067 15.19917,4.3477 18.73828,5.8711 3.53901,1.52347 6.31635,3.73831 8.33204,6.64453 2.01555,2.90628 3.02337,6.51565 3.02343,10.82812 -6e-5,4.21877 -1.23053,8.19142 -3.6914,11.91797 -2.461,3.72657 -6.01178,6.60938 -10.65235,8.64844 -4.64067,2.03906 -9.89066,3.05859 -15.75,3.05859 -9.70315,0 -17.09767,-2.01562 -22.18359,-6.04687 -5.08595,-4.03124 -8.33204,-10.0078 -9.73828,-17.92969 z"
       style="font-size:144px;letter-spacing:-5px;fill:#ffffff;font-family:Ubuntu;-inkscape-font-specification:Ubuntu"
       id="path3837" /><path
       d="m 667.49218,446.71988 0,-103.28906 11.53125,0 0,9.70312 c 2.71872,-3.7968 5.78903,-6.64446 9.21094,-8.54297 3.42184,-1.89836 7.57027,-2.84758 12.44531,-2.84765 6.37495,7e-5 11.99994,1.6407 16.875,4.92187 4.87493,3.28132 8.55462,7.91022 11.03906,13.88672 2.4843,5.97661 3.72649,12.52739 3.72656,19.65234 -7e-5,7.64066 -1.37116,14.51956 -4.11328,20.63672 -2.74225,6.1172 -6.72662,10.8047 -11.95312,14.0625 -5.22662,3.25782 -10.72271,4.88672 -16.48828,4.88672 -4.21879,0 -8.00394,-0.89062 -11.35547,-2.67187 -3.35159,-1.78125 -6.1055,-4.03125 -8.26172,-6.75 l 0,36.35156 z m 11.46094,-65.53125 c -3e-5,9.6094 1.94528,16.71096 5.83593,21.30469 3.8906,4.59376 8.60153,6.89063 14.13282,6.89062 5.62495,1e-5 10.44135,-2.37889 14.44921,-7.13672 4.00776,-4.75779 6.01166,-12.12888 6.01172,-22.11328 -6e-5,-9.51558 -1.95709,-16.64057 -5.87109,-21.375 -3.91412,-4.73431 -8.58989,-7.10149 -14.02734,-7.10156 -5.39067,7e-5 -10.16019,2.51959 -14.3086,7.55859 -4.14846,5.03912 -6.22268,12.36333 -6.22265,21.97266 z"
       style="font-size:144px;letter-spacing:-5px;fill:#ffffff;font-family:Ubuntu;-inkscape-font-specification:Ubuntu"
       id="path3839" /><path
       d="m 793.76562,394.05582 13.07812,1.61718 c -2.06257,7.64064 -5.88288,13.57033 -11.46094,17.78907 -5.57818,4.21875 -12.70317,6.32812 -21.375,6.32812 -10.9219,0 -19.58205,-3.36328 -25.98047,-10.08984 -6.39844,-6.72655 -9.59766,-16.16013 -9.59765,-28.30078 -10e-6,-12.56245 3.23436,-22.31244 9.70312,-29.25 6.46873,-6.93743 14.85935,-10.40618 25.17188,-10.40625 9.98432,7e-5 18.14056,3.39851 24.46875,10.19531 6.32805,6.79693 9.49211,16.35942 9.49219,28.6875 -8e-5,0.75004 -0.0235,1.87503 -0.0703,3.375 l -55.6875,0 c 0.46873,8.20315 2.78904,14.48439 6.96094,18.84375 4.17185,4.35939 9.37497,6.53907 15.60938,6.53906 4.64057,1e-5 8.60151,-1.21874 11.88281,-3.65625 3.28119,-2.43748 5.88275,-6.3281 7.80469,-11.67187 z m -41.55469,-20.46094 41.69531,0 c -0.56256,-6.2812 -2.15631,-10.99213 -4.78125,-14.13281 -4.0313,-4.87494 -9.25786,-7.31244 -15.67969,-7.3125 -5.81253,6e-5 -10.69925,1.94537 -14.66015,5.83593 -3.96096,3.89069 -6.15237,9.09381 -6.57422,15.60938 z"
       style="font-size:144px;letter-spacing:-5px;fill:#ffffff;font-family:Ubuntu;-inkscape-font-specification:Ubuntu"
       id="path3841" /><path
       d="m 817.52343,418.10269 0,-103.07812 12.65625,0 0,103.07812 z"
       style="font-size:144px;letter-spacing:-5px;fill:#ffffff;font-family:Ubuntu;-inkscape-font-specification:Ubuntu"
       id="path3843" /><path
       d="m 848.45312,418.10269 0,-14.41406 14.41406,0 0,14.41406 z"
       style="font-size:144px;letter-spacing:-5px;fill:#ffffff;font-family:Ubuntu;-inkscape-font-specification:Ubuntu"
       id="path3845" /><path
       d="m 879.80468,418.10269 0,-74.67187 11.39062,0 0,10.61718 c 5.48435,-8.20305 13.40622,-12.30461 23.76563,-12.30468 4.49995,7e-5 8.63666,0.80867 12.41015,2.42578 3.77338,1.61726 6.5976,3.73835 8.47266,6.36328 1.87493,2.62506 3.18743,5.74225 3.9375,9.35156 0.46868,2.34381 0.70305,6.44537 0.70313,12.30469 l 0,45.91406 -12.65625,0 0,-45.42187 c -6e-5,-5.1562 -0.49225,-9.01167 -1.47657,-11.56641 -0.98443,-2.55463 -2.73052,-4.59369 -5.23828,-6.11719 -2.50786,-1.52337 -5.44926,-2.28509 -8.82422,-2.28515 -5.39066,6e-5 -10.043,1.711 -13.95703,5.13281 -3.91409,3.42193 -5.87111,9.91411 -5.87109,19.47656 l 0,40.78125 z"
       style="font-size:144px;letter-spacing:-5px;fill:#ffffff;font-family:Ubuntu;-inkscape-font-specification:Ubuntu"
       id="path3847" /><path
       d="m 954.67968,418.10269 0,-103.07812 12.65625,0 0,103.07812 z"
       style="font-size:144px;letter-spacing:-5px;fill:#ffffff;font-family:Ubuntu;-inkscape-font-specification:Ubuntu"
       id="path3849" /></g><path
     style="fill:#ffffff;fill-opacity:1;stroke:none"
     d="M 700.27736,10 561.87116,10.3124 598.55856,38 552.62116,70.5312 C 523.95526,42.6949 478.43656,25.625 430.18356,25.625 c -80.887,0 -153.125,47.7078 -153.125,112.96867 0,23.14674 9.4355,45.86484 26.125,63.50004 0.7049,20.6655 -13.049,50.3134 -25.4374,71.9063 33.2028,-5.3073 80.4045,-17.028 101.8124,-28.625 117.2775,25.2383 202.8955,-37.81 203.75,-105.75004 l 59.375,-42.06257 15.8438,44.40627 L 700.27736,10 z m -21.9062,16.75 -23.3126,73.6562 -9.3437,-26.2188 -142.375,97.34381 a 20.002,20.002 0 0 1 -20.4063,1.2812 l -53.9374,-27.59374 -61.5938,47.81254 a 20.002,20.002 0 1 1 -24.5312,-31.5938 l 71.6562,-55.62501 a 20.002,20.002 0 0 1 21.375,-2 l 54.6875,28 130.9063,-89.5 -20.375,-15.375 77.25,-0.1874 z"
     id="speech-bubble-2-icon-3-35-9-94-6-0-6-3-7-0-2-2-0"
     inkscape:connector-curvature="0" /><flowRoot
     xml:space="preserve"
     id="flowRoot3754"
     style="font-size:40px;font-style:normal;font-variant:normal;font-weight:normal;font-stretch:normal;line-height:125%;letter-spacing:0px;word-spacing:0px;fill:#ffffff;fill-opacity:1;stroke:none;font-family:Poiret One;-inkscape-font-specification:Poiret One"
     transform="translate(10.57149,10)"><flowRegion
       id="flowRegion3756"><rect
         style="fill:#ffffff;fill-opacity:1"
         id="rect3758"
         width="1571.4286"
         height="577.14288"
         x="-188.57143"
         y="191.88553" /></flowRegion><flowPara
       id="flowPara3760" /></flowRoot></svg>