<?xml version="1.0" encoding="UTF-8" standalone="no"?>
<!-- The icon can be used freely in both personal and commercial projects with no attribution required, but always appreciated. 
You may NOT sub-license, resell, rent, redistribute or otherwise transfer the icon without express written permission from iconmonstr.com -->

<svg
   xmlns:dc="http://purl.org/dc/elements/1.1/"
   xmlns:cc="http://creativecommons.org/ns#"
   xmlns:rdf="http://www.w3.org/1999/02/22-rdf-syntax-ns#"
   xmlns:svg="http://www.w3.org/2000/svg"
   xmlns="http://www.w3.org/2000/svg"
   xmlns:sodipodi="http://sodipodi.sourceforge.net/DTD/sodipodi-0.dtd"
   xmlns:inkscape="http://www.inkscape.org/namespaces/inkscape"
   sodipodi:docname="banner.png"
   inkscape:version="0.48.4 r9939"
   id="svg2"
   xml:space="preserve"
   enable-background="new 0 0 512 512"
   viewBox="0 0 912.83995 453.62946"
   height="453.62946"
   width="912.83997"
   y="0px"
   x="0px"
   version="1.1"
   inkscape:export-filename="/home/vincent/Node/feedbackspel.nl/app/public/img/banner.png"
   inkscape:export-xdpi="90"
   inkscape:export-ydpi="90"><metadata
     id="metadata9"><rdf:RDF><cc:Work
         rdf:about=""><dc:format>image/svg+xml</dc:format><dc:type
           rdf:resource="http://purl.org/dc/dcmitype/StillImage" /><dc:title></dc:title></cc:Work></rdf:RDF></metadata><defs
     id="defs7"><marker
       inkscape:stockid="DotS"
       orient="auto"
       refY="0"
       refX="0"
       id="DotS"
       style="overflow:visible"><path
         id="path3941"
         d="m -2.5,-1 c 0,2.76 -2.24,5 -5,5 -2.76,0 -5,-2.24 -5,-5 0,-2.76 2.24,-5 5,-5 2.76,0 5,2.24 5,5 z"
         style="fill-rule:evenodd;stroke:#000000;stroke-width:1pt"
         transform="matrix(0.2,0,0,0.2,1.48,0.2)"
         inkscape:connector-curvature="0" /></marker><marker
       inkscape:stockid="DotM"
       orient="auto"
       refY="0"
       refX="0"
       id="DotM"
       style="overflow:visible"><path
         id="path3938"
         d="m -2.5,-1 c 0,2.76 -2.24,5 -5,5 -2.76,0 -5,-2.24 -5,-5 0,-2.76 2.24,-5 5,-5 2.76,0 5,2.24 5,5 z"
         style="fill-rule:evenodd;stroke:#000000;stroke-width:1pt"
         transform="matrix(0.4,0,0,0.4,2.96,0.4)"
         inkscape:connector-curvature="0" /></marker><marker
       inkscape:stockid="Arrow2Send"
       orient="auto"
       refY="0"
       refX="0"
       id="Arrow2Send"
       style="overflow:visible"><path
         id="path3907"
         style="fill-rule:evenodd;stroke-width:0.625;stroke-linejoin:round"
         d="M 8.7185878,4.0337352 -2.2072895,0.01601326 8.7185884,-4.0017078 c -1.7454984,2.3720609 -1.7354408,5.6174519 -6e-7,8.035443 z"
         transform="matrix(-0.3,0,0,-0.3,0.69,0)"
         inkscape:connector-curvature="0" /></marker><marker
       inkscape:stockid="Arrow2Mend"
       orient="auto"
       refY="0"
       refX="0"
       id="Arrow2Mend"
       style="overflow:visible"><path
         id="path3901"
         style="fill-rule:evenodd;stroke-width:0.625;stroke-linejoin:round"
         d="M 8.7185878,4.0337352 -2.2072895,0.01601326 8.7185884,-4.0017078 c -1.7454984,2.3720609 -1.7354408,5.6174519 -6e-7,8.035443 z"
         transform="scale(-0.6,-0.6)"
         inkscape:connector-curvature="0" /></marker></defs><sodipodi:namedview
     pagecolor="#ffffff"
     bordercolor="#666666"
     borderopacity="1"
     objecttolerance="10"
     gridtolerance="10"
     guidetolerance="10"
     inkscape:pageopacity="0"
     inkscape:pageshadow="2"
     inkscape:window-width="1366"
     inkscape:window-height="719"
     id="namedview5"
     showgrid="false"
     fit-margin-top="10"
     fit-margin-left="10"
     fit-margin-right="10"
     fit-margin-bottom="10"
     inkscape:zoom="0.65186406"
     inkscape:cx="708.93474"
     inkscape:cy="101.84971"
     inkscape:window-x="0"
     inkscape:window-y="0"
     inkscape:window-maximized="1"
     inkscape:current-layer="svg2"
     showguides="true"
     inkscape:guide-bbox="true"
     inkscape:showpageshadow="false" /><flowRoot
     xml:space="preserve"
     id="flowRoot3754"
     style="font-size:40px;font-style:normal;font-variant:normal;font-weight:normal;font-stretch:normal;line-height:125%;letter-spacing:0px;word-spacing:0px;fill:#ffffff;fill-opacity:1;stroke:none;font-family:Poiret One;-inkscape-font-specification:Poiret One"
     transform="translate(-18.810551,10)"><flowRegion
       id="flowRegion3756"><rect
         style="fill:#ffffff;fill-opacity:1"
         id="rect3758"
         width="1571.4286"
         height="577.14288"
         x="-188.57143"
         y="191.88553" /></flowRegion><flowPara
       id="flowPara3760" /></flowRoot><text
     xml:space="preserve"
     style="font-size:40px;font-style:normal;font-variant:normal;font-weight:normal;font-stretch:normal;line-height:125%;letter-spacing:0px;word-spacing:0px;fill:#55be78;fill-opacity:1;stroke:none;font-family:Arial;-inkscape-font-specification:Arial"
     x="8.9695024"
     y="407.62991"
     id="text3010"
     sodipodi:linespacing="125%"><tspan
       sodipodi:role="line"
       id="tspan3012"
       x="8.9695024"
       y="407.62991"
       style="font-size:144px;font-family:'Lobster 1.4';-inkscape-font-specification:'Lobster 1.4';fill:#55be78;fill-opacity:1">Feedbackspel.nl</tspan></text>
<path
     inkscape:connector-curvature="0"
     style="fill:#55be78;fill-opacity:1"
     d="m 670.294,13.885143 -138.40632,0.3126 36.6876,27.6874 -45.9376,32.5313 c -28.6658,-27.8363 -74.1844,-44.9063 -122.4374,-44.9063 -80.88705,0 -153.12505,47.7079 -153.12505,112.968797 0,23.1467 9.4355,45.8648 26.125,63.5 0.7049,20.6655 -13.0492,50.3133 -25.4376,71.9062 33.2029,-5.3072 80.4047,-17.028 101.81265,-28.625 117.2775,25.2383 202.8955,-37.8099 203.75,-105.75 l 59.375,-42.0624 15.84372,44.4062 41.75,-131.968797 z m -21.9063,16.75 -23.3124,73.656297 -9.34382,-26.218697 -142.375,97.343697 a 20.002,20.002 0 0 1 -20.4062,1.2813 l -53.9376,-27.5938 -61.59375,47.8125 a 20.002,20.002 0 1 1 -24.5313,-31.5937 l 71.65635,-55.625 a 20.002,20.002 0 0 1 21.375,-2 l 54.6875,28 130.9062,-89.499997 -20.375,-15.375 77.25002,-0.1876 z m -244.28122,18.5313 c 12.4718,-0.037 24.5329,1.2774 35.875,3.75 -11.5478,0.7032 -23.5478,2.3224 -35.7812,4.9063 -68.09615,14.3825 -122.68275,54.404397 -136.50005,96.249997 -2.8558,-50.7446 49.6449,-96.948197 119.15625,-103.999997 5.8167,-0.5902 11.581,-0.8894 17.25,-0.9063 z"
     id="speech-bubble-2-icon-3-35-9-94-6-0-6-3-7-0-2-2-0-1" /></svg>