<?xml version="1.0" encoding="UTF-8" standalone="no"?>
<!-- The icon can be used freely in both personal and commercial projects with no attribution required, but always appreciated. 
You may NOT sub-license, resell, rent, redistribute or otherwise transfer the icon without express written permission from iconmonstr.com -->

<svg
   xmlns:dc="http://purl.org/dc/elements/1.1/"
   xmlns:cc="http://creativecommons.org/ns#"
   xmlns:rdf="http://www.w3.org/1999/02/22-rdf-syntax-ns#"
   xmlns:svg="http://www.w3.org/2000/svg"
   xmlns="http://www.w3.org/2000/svg"
   xmlns:sodipodi="http://sodipodi.sourceforge.net/DTD/sodipodi-0.dtd"
   xmlns:inkscape="http://www.inkscape.org/namespaces/inkscape"
   sodipodi:docname="banner.svg"
   inkscape:version="0.48.5 r10040"
   id="svg2"
   xml:space="preserve"
   enable-background="new 0 0 512 512"
   viewBox="0 0 912.83995 453.62946"
   height="453.62946"
   width="912.83997"
   y="0px"
   x="0px"
   version="1.1"
   inkscape:export-filename="D:\Node\feedbackspel.nl\app\public\img\banner.png"
   inkscape:export-xdpi="90"
   inkscape:export-ydpi="90"><metadata
     id="metadata9"><rdf:RDF><cc:Work
         rdf:about=""><dc:format>image/svg+xml</dc:format><dc:type
           rdf:resource="http://purl.org/dc/dcmitype/StillImage" /></cc:Work></rdf:RDF></metadata><defs
     id="defs7"><marker
       inkscape:stockid="DotS"
       orient="auto"
       refY="0"
       refX="0"
       id="DotS"
       style="overflow:visible"><path
         id="path3941"
         d="m -2.5,-1 c 0,2.76 -2.24,5 -5,5 -2.76,0 -5,-2.24 -5,-5 0,-2.76 2.24,-5 5,-5 2.76,0 5,2.24 5,5 z"
         style="fill-rule:evenodd;stroke:#000000;stroke-width:1pt"
         transform="matrix(0.2,0,0,0.2,1.48,0.2)"
         inkscape:connector-curvature="0" /></marker><marker
       inkscape:stockid="DotM"
       orient="auto"
       refY="0"
       refX="0"
       id="DotM"
       style="overflow:visible"><path
         id="path3938"
         d="m -2.5,-1 c 0,2.76 -2.24,5 -5,5 -2.76,0 -5,-2.24 -5,-5 0,-2.76 2.24,-5 5,-5 2.76,0 5,2.24 5,5 z"
         style="fill-rule:evenodd;stroke:#000000;stroke-width:1pt"
         transform="matrix(0.4,0,0,0.4,2.96,0.4)"
         inkscape:connector-curvature="0" /></marker><marker
       inkscape:stockid="Arrow2Send"
       orient="auto"
       refY="0"
       refX="0"
       id="Arrow2Send"
       style="overflow:visible"><path
         id="path3907"
         style="fill-rule:evenodd;stroke-width:0.625;stroke-linejoin:round"
         d="M 8.7185878,4.0337352 -2.2072895,0.01601326 8.7185884,-4.0017078 c -1.7454984,2.3720609 -1.7354408,5.6174519 -6e-7,8.035443 z"
         transform="matrix(-0.3,0,0,-0.3,0.69,0)"
         inkscape:connector-curvature="0" /></marker><marker
       inkscape:stockid="Arrow2Mend"
       orient="auto"
       refY="0"
       refX="0"
       id="Arrow2Mend"
       style="overflow:visible"><path
         id="path3901"
         style="fill-rule:evenodd;stroke-width:0.625;stroke-linejoin:round"
         d="M 8.7185878,4.0337352 -2.2072895,0.01601326 8.7185884,-4.0017078 c -1.7454984,2.3720609 -1.7354408,5.6174519 -6e-7,8.035443 z"
         transform="scale(-0.6,-0.6)"
         inkscape:connector-curvature="0" /></marker></defs><sodipodi:namedview
     pagecolor="#ffffff"
     bordercolor="#666666"
     borderopacity="1"
     objecttolerance="10"
     gridtolerance="10"
     guidetolerance="10"
     inkscape:pageopacity="0"
     inkscape:pageshadow="2"
     inkscape:window-width="1920"
     inkscape:window-height="1148"
     id="namedview5"
     showgrid="false"
     fit-margin-top="10"
     fit-margin-left="10"
     fit-margin-right="10"
     fit-margin-bottom="10"
     inkscape:zoom="0.65186406"
     inkscape:cx="708.93474"
     inkscape:cy="52.759716"
     inkscape:window-x="-5"
     inkscape:window-y="-5"
     inkscape:window-maximized="1"
     inkscape:current-layer="svg2"
     showguides="true"
     inkscape:guide-bbox="true"
     inkscape:showpageshadow="false" /><path
     style="fill:#55be78;fill-opacity:1;stroke:none"
     d="M 668.02936,10 529.62316,10.3124 566.31056,38 520.37316,70.5312 C 491.70726,42.6949 446.18856,25.625 397.93556,25.625 c -80.887,0 -153.125,47.7078 -153.125,112.96867 0,23.14674 9.4355,45.86484 26.125,63.50004 0.7049,20.6655 -13.049,50.3134 -25.4374,71.9063 33.2028,-5.3073 80.4045,-17.028 101.8124,-28.625 117.2775,25.2383 202.8955,-37.81 203.75,-105.75004 l 59.375,-42.06257 15.8438,44.40627 L 668.02936,10 z m -21.9062,16.75 -23.3126,73.6562 -9.3437,-26.2188 -142.375,97.34381 a 20.002,20.002 0 0 1 -20.4063,1.2812 l -53.9374,-27.59374 -61.5938,47.81254 a 20.002,20.002 0 1 1 -24.5312,-31.5938 l 71.6562,-55.62501 a 20.002,20.002 0 0 1 21.375,-2 l 54.6875,28 130.9063,-89.5 -20.375,-15.375 77.25,-0.1874 z"
     id="speech-bubble-2-icon-3-35-9-94-6-0-6-3-7-0-2-2-0"
     inkscape:connector-curvature="0" /><flowRoot
     xml:space="preserve"
     id="flowRoot3754"
     style="font-size:40px;font-style:normal;font-variant:normal;font-weight:normal;font-stretch:normal;line-height:125%;letter-spacing:0px;word-spacing:0px;fill:#ffffff;fill-opacity:1;stroke:none;font-family:Poiret One;-inkscape-font-specification:Poiret One"
     transform="translate(-18.810551,10)"><flowRegion
       id="flowRegion3756"><rect
         style="fill:#ffffff;fill-opacity:1"
         id="rect3758"
         width="1571.4286"
         height="577.14288"
         x="-188.57143"
         y="191.88553" /></flowRegion><flowPara
       id="flowPara3760" /></flowRoot><text
     xml:space="preserve"
     style="font-size:40px;font-style:normal;font-variant:normal;font-weight:normal;font-stretch:normal;line-height:125%;letter-spacing:0px;word-spacing:0px;fill:#55be78;fill-opacity:1;stroke:none;font-family:Arial;-inkscape-font-specification:Arial"
     x="8.9695024"
     y="407.62991"
     id="text3010"
     sodipodi:linespacing="125%"><tspan
       sodipodi:role="line"
       id="tspan3012"
       x="8.9695024"
       y="407.62991"
       style="font-size:144px;font-family:'Lobster 1.4';-inkscape-font-specification:'Lobster 1.4';fill:#55be78;fill-opacity:1">Feedbackspel.nl</tspan></text>
</svg>