<?xml version="1.0" encoding="UTF-8" standalone="no"?>
<!-- Created with Inkscape (http://www.inkscape.org/) -->

<svg
   xmlns:dc="http://purl.org/dc/elements/1.1/"
   xmlns:cc="http://creativecommons.org/ns#"
   xmlns:rdf="http://www.w3.org/1999/02/22-rdf-syntax-ns#"
   xmlns:svg="http://www.w3.org/2000/svg"
   xmlns="http://www.w3.org/2000/svg"
   xmlns:sodipodi="http://sodipodi.sourceforge.net/DTD/sodipodi-0.dtd"
   xmlns:inkscape="http://www.inkscape.org/namespaces/inkscape"
   width="600"
   height="124"
   id="svg3007"
   version="1.1"
   inkscape:version="0.48.4 r9939"
   sodipodi:docname="logo.svg"
   inkscape:export-filename="/home/vincent/Node/feedbackspel.nl/app/public/img/logo.png"
   inkscape:export-xdpi="90"
   inkscape:export-ydpi="90">
  <defs
     id="defs3009" />
  <sodipodi:namedview
     id="base"
     pagecolor="#ffffff"
     bordercolor="#666666"
     borderopacity="1.0"
     inkscape:pageopacity="0.0"
     inkscape:pageshadow="2"
     inkscape:zoom="0.99999999"
     inkscape:cx="324.55036"
     inkscape:cy="63.587858"
     inkscape:document-units="px"
     inkscape:current-layer="layer1"
     showgrid="false"
     fit-margin-top="0"
     fit-margin-left="0"
     fit-margin-right="0"
     fit-margin-bottom="0"
     inkscape:window-width="1366"
     inkscape:window-height="719"
     inkscape:window-x="0"
     inkscape:window-y="0"
     inkscape:window-maximized="1"
     showguides="true"
     inkscape:guide-bbox="true"
     height="372.05px" />
  <metadata
     id="metadata3012">
    <rdf:RDF>
      <cc:Work
         rdf:about="">
        <dc:format>image/svg+xml</dc:format>
        <dc:type
           rdf:resource="http://purl.org/dc/dcmitype/StillImage" />
        <dc:title></dc:title>
      </cc:Work>
    </rdf:RDF>
  </metadata>
  <g
     inkscape:label="Layer 1"
     inkscape:groupmode="layer"
     id="layer1"
     transform="translate(-46.423107,-506.08807)">
    <path
       style="font-size:medium;font-style:normal;font-variant:normal;font-weight:normal;font-stretch:normal;text-indent:0;text-align:start;text-decoration:none;line-height:normal;letter-spacing:normal;word-spacing:normal;text-transform:none;direction:ltr;block-progression:tb;writing-mode:lr-tb;text-anchor:start;baseline-shift:baseline;color:#000000;fill:#ffffff;fill-opacity:1;fill-rule:nonzero;stroke:none;stroke-width:1;marker:none;visibility:visible;display:inline;overflow:visible;enable-background:accumulate;font-family:Sans;-inkscape-font-specification:Sans"
       d="m 62.806085,602.08807 c -1.693964,4.5606 -4.18494,9.77088 -6.845744,14.08156 l -8.015956,12.88542 15.79787,-2.33784 c 13.22416,-1.96468 30.369392,-5.58058 41.601055,-10.54758 24.5647,4.34988 46.37548,0.72022 62.43084,-7.99226 3.33234,-1.80826 6.39526,-3.86156 9.18618,-6.0893 l -114.154245,0 z"
       id="speech-bubble-2-icon-3-35-9-94-6-0-6-3-7-0-2-2-0-1-9"
       inkscape:connector-curvature="0" />
    <path
       inkscape:connector-curvature="0"
       style="fill:#55be78;fill-opacity:1"
       d="m 224.42311,518.08817 -49.05492,0.1088 13.00302,9.64862 -16.28142,11.33668 c -10.15996,-9.70056 -26.29297,-15.64918 -43.39511,-15.64918 -28.66852,0 -54.271573,16.6255 -54.271573,39.36786 0,8.06628 3.344192,15.98324 9.259394,22.1288 0.249834,7.20166 -4.624982,17.53344 -9.01576,25.05826 11.767984,-1.8495 28.497559,-5.93404 36.085099,-9.97538 41.56627,8.79516 71.91159,-13.17616 72.21437,-36.85232 l 21.04406,-14.65802 5.61548,15.47488 14.79732,-45.98916 z m -7.76422,5.83716 -8.26258,25.6681 -3.31166,-9.13684 -50.46146,33.92282 a 7.089239,6.9703924 0 0 1 -7.23251,0.44652 l -19.11692,-9.61604 -21.83045,16.6619 a 7.089239,6.9703924 0 1 1 -8.694547,-11.0099 l 25.396907,-19.38448 a 7.089239,6.9703924 0 0 1 7.57587,-0.69692 l 19.38269,9.75758 46.39666,-31.18944 -7.22146,-5.35796 27.37944,-0.0654 z m -86.57975,6.45788 c 4.42034,-0.016 8.69511,0.44518 12.71505,1.3068 -4.09285,0.245 -8.34596,0.80928 -12.6818,1.70982 -24.13508,5.01196 -43.482019,18.95904 -48.379237,33.5416 -1.012172,-17.68374 17.59547,-33.785 42.232137,-36.24242 2.06159,-0.20566 4.10461,-0.3099 6.11385,-0.3158 z"
       id="speech-bubble-2-icon-3-35-9-94-6-0-6-3-7-0-2-2-0-1" />
    <path
       style="font-size:medium;font-style:normal;font-variant:normal;font-weight:normal;font-stretch:normal;text-indent:0;text-align:start;text-decoration:none;line-height:normal;letter-spacing:normal;word-spacing:normal;text-transform:none;direction:ltr;block-progression:tb;writing-mode:lr-tb;text-anchor:start;baseline-shift:baseline;color:#000000;fill:#e5e5e5;fill-opacity:1;fill-rule:nonzero;stroke:none;stroke-width:1;marker:none;visibility:visible;display:inline;overflow:visible;enable-background:accumulate;font-family:Sans;-inkscape-font-specification:Sans"
       d="m 61.986935,602.08807 c -1.656424,4.39082 -4.005208,9.40998 -6.55319,13.53786 l -8.015958,12.88544 -0.99468,1.5767 1.93085,-0.27184 15.797872,-2.33788 c 13.19363,-1.96008 30.196838,-5.55414 41.601061,-10.54756 24.63549,4.30082 46.57176,0.64112 62.7819,-8.15534 3.62572,-1.96752 6.89442,-4.23152 9.88832,-6.68738 l -2.75002,0 c -2.4791,1.89112 -5.1806,3.64906 -8.07446,5.2194 -15.83387,8.59228 -37.41682,12.19902 -61.78723,7.88352 l -0.35106,-0.0542 -0.23405,0.1088 c -11.058957,4.89062 -28.197089,8.5366 -41.367013,10.49318 l -13.80851,2.06604 7.021276,-11.30874 c 2.731472,-4.42514 5.251762,-9.73282 6.962766,-14.40778 l -2.047874,0 z"
       id="speech-bubble-2-icon-3-35-9-94-6-0-6-3-7-0-2-2-0-1-9-5"
       inkscape:connector-curvature="0" />
    <g
       style="font-size:8.58056164px;font-style:normal;font-variant:normal;font-weight:normal;font-stretch:normal;line-height:125%;letter-spacing:0px;word-spacing:0px;fill:#55be78;fill-opacity:1;stroke:none;font-family:Arial;-inkscape-font-specification:Arial"
       id="text3010"
       transform="matrix(2,0,0,2,-36.595773,-641.97815)">
      <path
         d="m 151.39425,594.4101 1.29738,-6.14712 c 1.42094,0.3089 2.90366,0.58691 4.3246,0.58691 2.40942,-0.52513 2.50209,-2.40942 2.93455,-3.7068 -0.86492,0.27801 -1.82251,0.37068 -2.7801,0.37068 -1.94607,0 -3.89214,-0.37068 -5.12774,-0.37068 -7.62983,0 -10.5335,3.92304 -10.5335,8.03141 0,2.22408 1.17382,2.99633 3.30523,2.99633 -0.0309,-0.27801 -0.43246,-0.52513 -0.43246,-2.10052 0,-4.9424 1.63718,-6.30157 4.01571,-6.39424 l -4.44817,20.63454 4.44817,0 2.50209,-11.61465 4.50994,0 0.49424,-2.28586 -4.50994,0"
         style="font-size:30.89002419px;fill:#55be78;font-family:'Lobster 1.4';-inkscape-font-specification:'Lobster 1.4'"
         id="path3063"
         inkscape:connector-curvature="0" />
      <path
         d="m 159.57962,603.30642 c 0,-0.37068 0.0309,-0.80314 0.0618,-1.2356 3.7068,-0.21623 7.10471,-2.96544 7.10471,-6.51779 0,-1.5445 -0.6487,-2.96544 -3.39791,-2.96544 -6.33244,0 -8.3403,7.44449 -8.3403,10.99684 0,3.49057 1.91518,4.91152 4.81884,4.91152 4.10837,0 6.73403,-2.87278 8.49476,-5.71466 l -1.05026,0 c -1.5445,1.76073 -3.02723,3.1199 -5.46754,3.1199 -1.48272,0 -2.22408,-0.49425 -2.22408,-2.59477 m 4.78796,-7.81517 c 0,2.56387 -2.10053,4.9424 -4.47906,5.09685 0.6178,-3.05811 2.13142,-6.36334 3.70681,-6.36334 0.5869,0 0.77225,0.49424 0.77225,1.26649"
         style="font-size:30.89002419px;fill:#55be78;font-family:'Lobster 1.4';-inkscape-font-specification:'Lobster 1.4'"
         id="path3065"
         inkscape:connector-curvature="0" />
      <path
         d="m 171.46504,603.30642 c 0,-0.37068 0.0309,-0.80314 0.0618,-1.2356 3.7068,-0.21623 7.10471,-2.96544 7.10471,-6.51779 0,-1.5445 -0.6487,-2.96544 -3.39791,-2.96544 -6.33244,0 -8.3403,7.44449 -8.3403,10.99684 0,3.49057 1.91518,4.91152 4.81884,4.91152 4.10837,0 6.73403,-2.87278 8.49476,-5.71466 l -1.05026,0 c -1.5445,1.76073 -3.02723,3.1199 -5.46754,3.1199 -1.48272,0 -2.22408,-0.49425 -2.22408,-2.59477 m 4.78795,-7.81517 c 0,2.56387 -2.10052,4.9424 -4.47905,5.09685 0.6178,-3.05811 2.13141,-6.36334 3.7068,-6.36334 0.58691,0 0.77225,0.49424 0.77225,1.26649"
         style="font-size:30.89002419px;fill:#55be78;font-family:'Lobster 1.4';-inkscape-font-specification:'Lobster 1.4'"
         id="path3067"
         inkscape:connector-curvature="0" />
      <path
         d="m 190.73318,587.30539 -1.51361,7.10471 0,-0.12356 c 0,-0.89581 -0.74137,-1.57539 -2.50209,-1.57539 -5.37486,0 -7.93874,6.64136 -7.93874,10.8115 0,3.67591 2.00785,4.9733 4.10837,4.9733 2.19319,0 3.64503,-1.42094 4.57173,-2.84188 0.24712,1.72984 1.35916,2.65654 3.02722,2.65654 1.66806,0 4.44816,-0.49425 6.20889,-5.52932 l -1.29738,0 c -0.46335,1.5445 -1.29738,2.71833 -2.50209,2.71833 -0.86492,0 -1.26649,-0.27802 -1.26649,-1.14294 0,-0.27801 0.0309,-0.58691 0.12356,-0.98848 l 3.55235,-16.68061 -4.57172,0.6178 m -3.30523,15.63035 c -0.40157,1.69895 -1.66807,2.56388 -2.53299,2.56388 -0.55602,0 -1.5445,-0.0309 -1.5445,-2.40943 0,-2.90366 1.69896,-8.46386 4.32461,-8.46386 0.9267,0 1.20471,0.71047 1.26649,1.08115 l -1.51361,7.07381 0,0.15445"
         style="font-size:30.89002419px;fill:#55be78;font-family:'Lobster 1.4';-inkscape-font-specification:'Lobster 1.4'"
         id="path3069"
         inkscape:connector-curvature="0" />
      <path
         d="m 195.40964,602.78129 c -0.15445,0.64869 -0.21623,1.23561 -0.21623,1.76073 0,2.4712 1.48272,3.95393 4.3246,3.95393 6.54868,0 8.46387,-6.8267 8.46387,-10.44083 0,-3.92303 -1.48273,-5.28219 -3.64503,-5.28219 -0.6178,0 -1.26649,0.0927 -2.53298,0.86492 l 1.48272,-6.95026 -4.57172,0.6178 -3.30523,15.4759 m 9.45234,-4.84973 c 0,3.24345 -1.60628,7.56806 -3.61413,7.56806 -1.11204,0 -1.63717,-0.52514 -1.63717,-1.42095 0,-0.21623 0.0309,-0.46335 0.0927,-0.71047 l 1.69895,-7.84606 c 0.33979,-0.40157 1.39005,-0.55602 1.82251,-0.55602 1.11204,0 1.63717,1.45183 1.63717,2.96544"
         style="font-size:30.89002419px;fill:#55be78;font-family:'Lobster 1.4';-inkscape-font-specification:'Lobster 1.4'"
         id="path3071"
         inkscape:connector-curvature="0" />
      <path
         d="m 219.48407,592.8656 -0.33979,1.63717 0,-0.21623 c 0,-0.89581 -0.74137,-1.57539 -2.5021,-1.57539 -5.37485,0 -7.93873,6.64136 -7.93873,10.8115 0,3.67591 2.00785,4.9733 4.10837,4.9733 2.19319,0 3.64503,-1.42094 4.60262,-2.84188 0.18534,1.8534 1.29738,2.84188 3.02722,2.84188 1.66806,0 4.44816,-0.67959 6.20889,-5.71466 l -1.29738,0 c -0.46335,1.5445 -1.29738,2.90367 -2.50209,2.90367 -0.86492,0 -1.26649,-0.46336 -1.26649,-1.32828 0,-0.27801 0.0309,-0.58691 0.12356,-0.98848 l 2.22408,-10.5026 -4.44816,0 m -1.88429,1.76073 c 0.98848,0 1.26649,0.80314 1.26649,1.17382 l -1.48272,6.98114 c -0.37068,1.79162 -1.66807,2.71833 -2.56388,2.71833 -0.55602,0 -1.5445,-0.0309 -1.5445,-2.40943 0,-2.90366 1.69896,-8.46386 4.32461,-8.46386"
         style="font-size:30.89002419px;fill:#55be78;font-family:'Lobster 1.4';-inkscape-font-specification:'Lobster 1.4'"
         id="path3073"
         inkscape:connector-curvature="0" />
      <path
         d="m 233.95267,597.31376 c 0.37068,0.24712 0.74136,0.37068 1.08115,0.37068 0.89581,0 1.63717,-0.74136 1.63717,-2.25497 0,-1.42094 -0.67958,-2.84188 -3.42879,-2.84188 -6.27067,0 -8.30942,7.4136 -8.30942,10.99684 0,3.49057 1.91518,4.91152 4.81884,4.91152 4.10837,0 6.73403,-2.87278 8.49476,-5.71466 l -1.05026,0 c -1.5445,1.76073 -3.02722,3.1199 -5.46753,3.1199 -1.48272,0 -2.22409,-0.49425 -2.22409,-2.59477 0,-3.42879 2.00786,-9.08166 3.95393,-9.08166 0.58691,0 0.86492,0.49424 0.86492,1.26649 0,0.52513 -0.12356,1.14293 -0.37068,1.82251"
         style="font-size:30.89002419px;fill:#55be78;font-family:'Lobster 1.4';-inkscape-font-specification:'Lobster 1.4'"
         id="path3075"
         inkscape:connector-curvature="0" />
      <path
         d="m 248.74175,592.8656 -5.96177,4.69528 2.31675,-10.87329 -4.57173,0.6178 -4.47905,21.00522 4.44816,0 1.60629,-7.62984 c 0.86492,-0.71047 1.57539,-1.14293 2.28586,-1.14293 0.80314,0 1.11204,0.58691 1.11204,1.48272 0,0.33979 -0.0309,0.74136 -0.12356,1.14293 l -0.24712,1.20471 c -0.12356,0.58691 -0.18534,1.11205 -0.18534,1.60629 0,2.25496 1.35916,3.52146 3.89214,3.52146 1.42094,0 3.92304,-0.52514 5.68377,-5.71466 l -1.29739,0 c -0.67957,1.60628 -1.2356,2.71833 -2.59476,2.71833 -0.95759,0 -1.20471,-0.52514 -1.20471,-1.14294 0,-0.33979 0.0927,-0.67958 0.15445,-0.98848 l 0.33979,-1.5445 c 0.0927,-0.40157 0.12356,-0.80314 0.12356,-1.17382 0,-1.97696 -1.11204,-3.61413 -3.3979,-3.61413 -0.33979,0 -0.67958,0.0618 -1.01937,0.12356 l 6.178,-4.29371 -3.05811,0"
         style="font-size:30.89002419px;fill:#55be78;font-family:'Lobster 1.4';-inkscape-font-specification:'Lobster 1.4'"
         id="path3077"
         inkscape:connector-curvature="0" />
      <path
         d="m 265.00776,602.78129 c -0.58691,0.49424 -1.39005,1.05026 -2.22408,1.5445 0.0927,-0.37068 0.12356,-0.74136 0.12356,-1.17382 0,-2.03874 -0.3089,-3.24346 -0.67958,-11.24396 l -4.57173,0.6178 c -0.95759,3.02721 -2.06963,6.08533 -3.79947,9.14344 -0.83403,0.40157 -1.63717,1.45184 -1.63717,2.87277 0,1.88429 1.35916,3.95393 4.50994,3.95393 1.57539,0 3.55236,-0.49424 4.84974,-1.8534 1.42094,-0.83403 3.11989,-2.00786 4.72617,-3.86126 l -1.29738,0 m -8.95811,0 c 0,-0.52513 -0.3089,-0.89581 -0.71047,-1.08115 1.01937,-1.97696 1.8843,-3.83036 2.50209,-5.83821 0.3089,4.75706 0.58692,5.71465 0.58692,7.32093 0,2.1623 -1.32828,2.87278 -2.68744,2.87278 -1.35916,0 -1.88429,-0.71048 -1.88429,-2.16231 0.15445,0.3089 0.52513,0.40157 0.83403,0.40157 0.80314,0 1.35916,-0.77225 1.35916,-1.51361"
         style="font-size:30.89002419px;fill:#55be78;font-family:'Lobster 1.4';-inkscape-font-specification:'Lobster 1.4'"
         id="path3079"
         inkscape:connector-curvature="0" />
      <path
         d="m 267.3805,591.72266 -5.15863,24.31045 4.66439,-1.11204 1.60628,-7.53716 c 0.33979,0.58691 1.08115,1.11204 2.62565,1.11204 5.99266,0 7.59895,-6.73403 7.59895,-10.90418 0,-3.67591 -1.66806,-4.88062 -3.76858,-4.88062 -1.5445,0 -2.71833,0.55602 -3.61414,1.32827 l 0.49425,-2.31676 -4.44817,0 m 2.7801,14.08586 c -0.71047,0 -1.05026,-0.37068 -1.17382,-0.71047 l 1.82251,-8.64921 c 0.58691,-0.98848 1.45184,-1.51361 2.13142,-1.51361 0.55602,0 1.5445,0.18534 1.5445,2.56387 0,2.90366 -1.08116,8.30942 -4.32461,8.30942"
         style="font-size:30.89002419px;fill:#55be78;font-family:'Lobster 1.4';-inkscape-font-specification:'Lobster 1.4'"
         id="path3081"
         inkscape:connector-curvature="0" />
      <path
         d="m 283.68271,603.30642 c 0,-0.37068 0.0309,-0.80314 0.0618,-1.2356 3.7068,-0.21623 7.10471,-2.96544 7.10471,-6.51779 0,-1.5445 -0.6487,-2.96544 -3.39791,-2.96544 -6.33244,0 -8.3403,7.44449 -8.3403,10.99684 0,3.49057 1.91518,4.91152 4.81884,4.91152 4.10837,0 6.73403,-2.87278 8.49476,-5.71466 l -1.05026,0 c -1.5445,1.76073 -3.02723,3.1199 -5.46754,3.1199 -1.48272,0 -2.22408,-0.49425 -2.22408,-2.59477 m 4.78795,-7.81517 c 0,2.56387 -2.10052,4.9424 -4.47905,5.09685 0.6178,-3.05811 2.13141,-6.36334 3.7068,-6.36334 0.58691,0 0.77225,0.49424 0.77225,1.26649"
         style="font-size:30.89002419px;fill:#55be78;font-family:'Lobster 1.4';-inkscape-font-specification:'Lobster 1.4'"
         id="path3083"
         inkscape:connector-curvature="0" />
      <path
         d="m 299.21316,586.62581 -4.57173,0.6178 -3.30523,15.4759 c -0.15445,0.74136 -0.24712,1.42095 -0.24712,2.00786 0,2.62564 1.45183,3.76858 3.30523,3.76858 1.66806,0 3.24345,-1.05026 3.3979,-3.24345 -0.18534,0.0927 -0.43246,0.18534 -0.98848,0.18534 -0.95759,0 -1.26649,-0.52514 -1.26649,-1.23561 0,-0.27801 0.0618,-0.58691 0.12356,-0.89581 l 3.55236,-16.68061"
         style="font-size:30.89002419px;fill:#55be78;font-family:'Lobster 1.4';-inkscape-font-specification:'Lobster 1.4'"
         id="path3085"
         inkscape:connector-curvature="0" />
      <path
         d="m 298.75077,605.99386 c 0,1.35916 1.08116,2.44031 2.44032,2.44031 1.35915,0 2.4712,-1.08115 2.4712,-2.44031 0,-1.35916 -1.11205,-2.47121 -2.4712,-2.47121 -1.35916,0 -2.44032,1.11205 -2.44032,2.47121"
         style="font-size:30.89002419px;fill:#55be78;font-family:'Lobster 1.4';-inkscape-font-specification:'Lobster 1.4'"
         id="path3087"
         inkscape:connector-curvature="0" />
      <path
         d="m 314.83433,597.12842 c 0,1.97696 -1.39005,5.77644 -1.39005,7.87696 0,1.76072 0.95759,3.49057 3.64502,3.49057 1.63717,0 4.01571,-0.6487 5.74555,-5.71466 l -1.29738,0 c -0.67958,1.60628 -1.23561,2.71833 -2.59477,2.71833 -0.9267,0 -1.2356,-0.52514 -1.2356,-1.29739 0,-1.72983 1.48272,-5.46753 1.48272,-7.96962 0,-2.4712 -1.45183,-3.49057 -3.42879,-3.49057 -0.95759,0 -2.31675,0.24712 -3.61413,1.72984 l 0.33979,-1.60628 -4.44816,0 -3.27435,15.44501 4.44817,0 2.10052,-9.9157 c 0.46335,-1.5445 1.29738,-2.84188 2.40942,-2.84188 0.74136,0 1.11204,0.55602 1.11204,1.57539"
         style="font-size:30.89002419px;fill:#55be78;font-family:'Lobster 1.4';-inkscape-font-specification:'Lobster 1.4'"
         id="path3089"
         inkscape:connector-curvature="0" />
      <path
         d="m 329.37919,586.62581 -4.57173,0.6178 -3.30523,15.4759 c -0.15445,0.74136 -0.24712,1.42095 -0.24712,2.00786 0,2.62564 1.45183,3.76858 3.30523,3.76858 1.66806,0 3.24346,-1.05026 3.39791,-3.24345 -0.18534,0.0927 -0.43247,0.18534 -0.98849,0.18534 -0.95758,0 -1.26649,-0.52514 -1.26649,-1.23561 0,-0.27801 0.0618,-0.58691 0.12356,-0.89581 l 3.55236,-16.68061"
         style="font-size:30.89002419px;fill:#55be78;font-family:'Lobster 1.4';-inkscape-font-specification:'Lobster 1.4'"
         id="path3091"
         inkscape:connector-curvature="0" />
    </g>
  </g>
</svg>
