<?xml version="1.0" encoding="UTF-8" standalone="no"?>
<!-- Created with Inkscape (http://www.inkscape.org/) -->

<svg
   xmlns:dc="http://purl.org/dc/elements/1.1/"
   xmlns:cc="http://creativecommons.org/ns#"
   xmlns:rdf="http://www.w3.org/1999/02/22-rdf-syntax-ns#"
   xmlns:svg="http://www.w3.org/2000/svg"
   xmlns="http://www.w3.org/2000/svg"
   xmlns:sodipodi="http://sodipodi.sourceforge.net/DTD/sodipodi-0.dtd"
   xmlns:inkscape="http://www.inkscape.org/namespaces/inkscape"
   width="192"
   height="64"
   id="svg2"
   version="1.1"
   inkscape:version="0.48.5 r10040"
   sodipodi:docname="sprite-stars.svg"
   inkscape:export-filename="D:\Node\feedbackspel.nl\app\public\img\sprite-stars.png"
   inkscape:export-xdpi="90"
   inkscape:export-ydpi="90">
  <defs
     id="defs4" />
  <sodipodi:namedview
     id="base"
     pagecolor="#ffffff"
     bordercolor="#666666"
     borderopacity="1.0"
     inkscape:pageopacity="0.0"
     inkscape:pageshadow="2"
     inkscape:zoom="3.45"
     inkscape:cx="145.19787"
     inkscape:cy="10.996877"
     inkscape:document-units="px"
     inkscape:current-layer="layer1"
     showgrid="false"
     inkscape:window-width="1920"
     inkscape:window-height="1148"
     inkscape:window-x="-5"
     inkscape:window-y="-5"
     inkscape:window-maximized="1"
     fit-margin-top="0"
     fit-margin-left="0"
     fit-margin-right="0"
     fit-margin-bottom="0"
     showguides="true"
     inkscape:guide-bbox="true"
     inkscape:showpageshadow="false" />
  <metadata
     id="metadata7">
    <rdf:RDF>
      <cc:Work
         rdf:about="">
        <dc:format>image/svg+xml</dc:format>
        <dc:type
           rdf:resource="http://purl.org/dc/dcmitype/StillImage" />
        <dc:title></dc:title>
        <dc:title />
      </cc:Work>
    </rdf:RDF>
  </metadata>
  <g
     inkscape:label="Layer 1"
     inkscape:groupmode="layer"
     id="layer1"
     transform="translate(0,-988.36218)">
    <rect
       style="color:#000000;fill:#fddada;fill-opacity:1;fill-rule:nonzero;stroke:none;stroke-width:1;marker:none;visibility:visible;display:inline;overflow:visible;enable-background:accumulate"
       id="rect3776-3"
       width="64"
       height="64"
       x="64"
       y="1052.3622" />
    <rect
       style="color:#000000;fill:#daecfd;fill-opacity:1;fill-rule:nonzero;stroke:none;stroke-width:1;marker:none;visibility:visible;display:inline;overflow:visible;enable-background:accumulate"
       id="rect3776"
       width="64"
       height="64"
       x="0"
       y="1052.3622" />
    <rect
       style="color:#000000;fill:#daecfd;fill-opacity:1;fill-rule:nonzero;stroke:none;stroke-width:1;marker:none;visibility:visible;display:inline;overflow:visible;enable-background:accumulate"
       id="rect3776-9"
       width="64"
       height="64"
       x="128"
       y="1052.3622" />
    <path
       sodipodi:type="arc"
       style="color:#000000;fill:#cccccc;fill-opacity:1;fill-rule:nonzero;stroke:none;stroke-width:1;marker:none;visibility:visible;display:inline;overflow:visible;enable-background:accumulate"
       id="path3048"
       sodipodi:cx="257.5889"
       sodipodi:cy="-38.530483"
       sodipodi:rx="12.626906"
       sodipodi:ry="12.626906"
       d="m 270.2158,-38.530483 a 12.626906,12.626906 0 1 1 -25.25381,0 12.626906,12.626906 0 1 1 25.25381,0 z"
       transform="matrix(0.95035154,0,0,0.95035154,-84.800006,1056.9797)" />
    <path
       d="m 32,1000.2446 6.46784,14.0297 14.688807,2.1327 -10.691493,10.8035 2.610317,15.3477 L 32,1035.2056 l -13.075626,7.3527 2.610316,-15.3476 -10.691492,-10.8036 14.688826,-2.1326 L 32,1000.2446 z M 32,989.36216 22.522777,1009.9194 1,1013.044 16.665618,1028.8738 12.841031,1051.3622 32,1040.5884 51.158969,1051.3622 47.334382,1028.8738 63,1013.044 41.477223,1009.9194 32,989.36216 z"
       id="star-2-outline-icon"
       inkscape:connector-curvature="0"
       style="fill:#55be78;fill-opacity:1" />
    <polygon
       points="49.999,209.75 193.021,190.002 256,60.082 318.979,190.002 462.001,209.75 357.9,309.793 383.315,451.918 256,383.828 128.685,451.918 154.1,309.793 "
       id="star-2-icon"
       transform="matrix(0.15048471,0,0,0.15822946,57.475914,979.85544)"
       style="fill:#55be78;fill-opacity:1" />
  </g>
</svg>
