<?xml version="1.0" encoding="UTF-8" standalone="no"?>
<!-- Created with Inkscape (http://www.inkscape.org/) -->

<svg
   xmlns:dc="http://purl.org/dc/elements/1.1/"
   xmlns:cc="http://creativecommons.org/ns#"
   xmlns:rdf="http://www.w3.org/1999/02/22-rdf-syntax-ns#"
   xmlns:svg="http://www.w3.org/2000/svg"
   xmlns="http://www.w3.org/2000/svg"
   xmlns:sodipodi="http://sodipodi.sourceforge.net/DTD/sodipodi-0.dtd"
   xmlns:inkscape="http://www.inkscape.org/namespaces/inkscape"
   width="192"
   height="64"
   id="svg2"
   version="1.1"
   inkscape:version="0.48.5 r10040"
   sodipodi:docname="sprite-stars.svg"
   inkscape:export-filename="/home/vincent/Node/feedbackspel.nl/app/public/img/sprite-stars.png"
   inkscape:export-xdpi="90"
   inkscape:export-ydpi="90">
  <defs
     id="defs4" />
  <sodipodi:namedview
     id="base"
     pagecolor="#ffffff"
     bordercolor="#666666"
     borderopacity="1.0"
     inkscape:pageopacity="0.0"
     inkscape:pageshadow="2"
     inkscape:zoom="2.8"
     inkscape:cx="127.89356"
     inkscape:cy="20.408589"
     inkscape:document-units="px"
     inkscape:current-layer="layer1"
     showgrid="false"
     inkscape:window-width="1920"
     inkscape:window-height="1148"
     inkscape:window-x="-5"
     inkscape:window-y="-5"
     inkscape:window-maximized="1"
     fit-margin-top="0"
     fit-margin-left="0"
     fit-margin-right="0"
     fit-margin-bottom="0"
     showguides="true"
     inkscape:guide-bbox="true"
     inkscape:showpageshadow="false" />
  <metadata
     id="metadata7">
    <rdf:RDF>
      <cc:Work
         rdf:about="">
        <dc:format>image/svg+xml</dc:format>
        <dc:type
           rdf:resource="http://purl.org/dc/dcmitype/StillImage" />
        <dc:title />
        <dc:title />
      </cc:Work>
    </rdf:RDF>
  </metadata>
  <g
     inkscape:label="Layer 1"
     inkscape:groupmode="layer"
     id="layer1"
     transform="translate(0,-988.36218)">
    <rect
       style="color:#000000;fill:#daecfd;fill-opacity:1;fill-rule:nonzero;stroke:none;stroke-width:1;marker:none;visibility:visible;display:inline;overflow:visible;enable-background:accumulate"
       id="rect3774"
       width="192"
       height="64"
       x="0"
       y="988.36218" />
    <path
       sodipodi:type="arc"
       style="color:#000000;fill:#cccccc;fill-opacity:1;fill-rule:nonzero;stroke:none;stroke-width:1;marker:none;visibility:visible;display:inline;overflow:visible;enable-background:accumulate"
       id="path3048"
       sodipodi:cx="257.5889"
       sodipodi:cy="-38.530483"
       sodipodi:rx="12.626906"
       sodipodi:ry="12.626906"
       d="m 270.2158,-38.530483 a 12.626906,12.626906 0 1 1 -25.25381,0 12.626906,12.626906 0 1 1 25.25381,0 z"
       transform="matrix(0.95035154,0,0,0.95035154,-84.800006,1056.9797)" />
    <path
       d="m 32,1000.6121 6.67648,13.7734 15.16264,2.0937 -11.03638,10.6062 2.69452,15.0673 L 32,1034.9344 l -13.49742,7.2184 2.694519,-15.0672 -11.036379,-10.6063 15.16266,-2.0936 L 32,1000.6121 z M 32,989.92845 22.21706,1010.1101 0,1013.1777 16.17096,1028.7183 12.223,1050.7959 32,1040.2189 51.777,1050.7959 47.82904,1028.7183 64,1013.1777 41.78294,1010.1101 32,989.92845 z"
       id="star-2-outline-icon"
       inkscape:connector-curvature="0"
       style="fill:#55be78;fill-opacity:1" />
    <polygon
       points="357.9,309.793 383.315,451.918 256,383.828 128.685,451.918 154.1,309.793 49.999,209.75 193.021,190.002 256,60.082 318.979,190.002 462.001,209.75 "
       id="star-2-icon"
       transform="matrix(0.15533905,0,0,0.15533905,56.233203,980.59536)"
       style="fill:#55be78;fill-opacity:1" />
  </g>
</svg>
