<?xml version="1.0" encoding="UTF-8" standalone="no"?>
<!-- Created with Inkscape (http://www.inkscape.org/) -->

<svg
   xmlns:dc="http://purl.org/dc/elements/1.1/"
   xmlns:cc="http://creativecommons.org/ns#"
   xmlns:rdf="http://www.w3.org/1999/02/22-rdf-syntax-ns#"
   xmlns:svg="http://www.w3.org/2000/svg"
   xmlns="http://www.w3.org/2000/svg"
   xmlns:sodipodi="http://sodipodi.sourceforge.net/DTD/sodipodi-0.dtd"
   xmlns:inkscape="http://www.inkscape.org/namespaces/inkscape"
   width="700"
   height="400"
   id="svg3266"
   version="1.1"
   inkscape:version="0.48.5 r10040"
   sodipodi:docname="logo.svg">
  <defs
     id="defs3268" />
  <sodipodi:namedview
     id="base"
     pagecolor="#ffffff"
     bordercolor="#666666"
     borderopacity="1.0"
     inkscape:pageopacity="0.0"
     inkscape:pageshadow="2"
     inkscape:zoom="1.080775"
     inkscape:cx="522.69873"
     inkscape:cy="92.687784"
     inkscape:document-units="px"
     inkscape:current-layer="layer1"
     showgrid="false"
     fit-margin-top="0"
     fit-margin-left="0"
     fit-margin-right="0"
     fit-margin-bottom="0"
     inkscape:window-width="1920"
     inkscape:window-height="1148"
     inkscape:window-x="-5"
     inkscape:window-y="-5"
     inkscape:window-maximized="1" />
  <metadata
     id="metadata3271">
    <rdf:RDF>
      <cc:Work
         rdf:about="">
        <dc:format>image/svg+xml</dc:format>
        <dc:type
           rdf:resource="http://purl.org/dc/dcmitype/StillImage" />
        <dc:title />
      </cc:Work>
    </rdf:RDF>
  </metadata>
  <g
     inkscape:label="Layer 1"
     inkscape:groupmode="layer"
     id="layer1"
     transform="translate(435.02567,96.54379)">
    <g
       style="font-size:66.55287933px;font-style:normal;font-variant:normal;font-weight:normal;font-stretch:normal;line-height:125%;letter-spacing:0px;word-spacing:0px;fill:#55be78;fill-opacity:1;stroke:none;font-family:'Lobster 1.4';-inkscape-font-specification:'Lobster 1.4'"
       id="text3248"
       transform="translate(0,4)">
      <path
         d="m -264.61803,198.32689 2.79519,-13.24385 c 1.53621,0.34389 3.08909,0.63783 4.65864,0.88181 1.56949,0.24407 3.12237,0.37162 4.65864,0.38267 2.47625,-0.65299 4.06241,-1.77606 4.75847,-3.36919 0.69598,-1.59304 1.21731,-3.13206 1.56397,-4.61705 -0.93592,0.29538 -1.90924,0.50335 -2.91997,0.62393 -1.01079,0.12067 -2.03403,0.1789 -3.06971,0.1747 -2.12831,-0.0332 -4.16092,-0.16633 -6.09783,-0.39932 -1.93697,-0.23288 -3.5869,-0.36598 -4.9498,-0.39931 -8.13739,0.16782 -13.97455,1.94531 -17.5115,5.33248 -3.53697,3.38727 -5.26455,7.37761 -5.18274,11.97105 0.01,2.3654 0.62254,4.04029 1.8385,5.02467 1.21595,0.98445 2.97681,1.4614 5.28256,1.43087 -0.0679,-0.23845 -0.23155,-0.64331 -0.49082,-1.21457 -0.25928,-0.57121 -0.40625,-1.67486 -0.44091,-3.31096 0.0402,-5.22014 0.8416,-8.82227 2.4042,-10.80639 1.56257,-1.98404 3.64509,-2.974 6.24757,-2.96988 l -9.58349,44.45675 9.58349,0 5.39071,-25.02356 9.7166,0 1.06483,-4.92485 z"
         style="fill:#55be78;fill-opacity:1"
         id="path3050"
         inkscape:connector-curvature="0" />
      <path
         d="m -246.98239,217.49387 c 0.001,-0.40207 0.0153,-0.82911 0.0416,-1.28113 0.0263,-0.45198 0.0568,-0.9123 0.0915,-1.38095 4.13176,-0.31056 7.68119,-1.75252 10.64832,-4.32588 2.96709,-2.57333 4.51997,-5.81219 4.65864,-9.7166 0.0651,-1.722 -0.41458,-3.20278 -1.43919,-4.44234 -1.02464,-1.2395 -2.98515,-1.88838 -5.88153,-1.94665 -4.51692,0.1508 -8.09101,1.63138 -10.72227,4.44173 -2.63127,2.81041 -4.50459,6.04599 -5.61995,9.70674 -1.11536,3.66079 -1.65764,6.84213 -1.62683,9.54405 0.0416,3.73108 0.98997,6.43475 2.8451,8.11103 1.85514,1.67628 4.36747,2.49986 7.53702,2.47074 4.39797,-0.13033 8.08051,-1.417 11.04764,-3.86002 2.96708,-2.44301 5.38514,-5.26037 7.25417,-8.4521 l -2.26277,0 c -1.61807,1.93972 -3.34011,3.5342 -5.1661,4.78342 -1.82604,1.24925 -4.03058,1.89535 -6.61361,1.93833 -1.59726,0.0499 -2.7952,-0.31612 -3.59381,-1.09811 -0.79863,-0.78198 -1.19795,-2.2794 -1.19794,-4.49226 z m 10.31557,-16.83766 c -0.0818,2.85344 -1.0496,5.3325 -2.90334,7.43719 -1.85376,2.10473 -4.10266,3.28602 -6.74671,3.54389 0.70295,-3.45375 1.7761,-6.56228 3.21946,-9.3256 1.44333,-2.76327 3.03226,-4.22464 4.76679,-4.38411 0.62252,0.01 1.05788,0.25653 1.30608,0.74039 0.24816,0.48392 0.3674,1.14666 0.35772,1.98824 z"
         style="fill:#55be78;fill-opacity:1"
         id="path3052"
         inkscape:connector-curvature="0" />
      <path
         d="m -221.37513,217.49387 c 0.001,-0.40207 0.0153,-0.82911 0.0416,-1.28113 0.0263,-0.45198 0.0568,-0.9123 0.0915,-1.38095 4.13176,-0.31056 7.68119,-1.75252 10.64832,-4.32588 2.96709,-2.57333 4.51997,-5.81219 4.65864,-9.7166 0.0651,-1.722 -0.41458,-3.20278 -1.43919,-4.44234 -1.02464,-1.2395 -2.98515,-1.88838 -5.88153,-1.94665 -4.51692,0.1508 -8.09101,1.63138 -10.72227,4.44173 -2.63127,2.81041 -4.50459,6.04599 -5.61995,9.70674 -1.11536,3.66079 -1.65764,6.84213 -1.62683,9.54405 0.0416,3.73108 0.98997,6.43475 2.8451,8.11103 1.85514,1.67628 4.36747,2.49986 7.53702,2.47074 4.39796,-0.13033 8.08051,-1.417 11.04764,-3.86002 2.96708,-2.44301 5.38514,-5.26037 7.25417,-8.4521 l -2.26277,0 c -1.61807,1.93972 -3.34011,3.5342 -5.1661,4.78342 -1.82604,1.24925 -4.03058,1.89535 -6.61361,1.93833 -1.59726,0.0499 -2.7952,-0.31612 -3.59381,-1.09811 -0.79863,-0.78198 -1.19795,-2.2794 -1.19794,-4.49226 z m 10.31557,-16.83766 c -0.0818,2.85344 -1.0496,5.3325 -2.90334,7.43719 -1.85376,2.10473 -4.10266,3.28602 -6.74671,3.54389 0.70295,-3.45375 1.7761,-6.56228 3.21946,-9.3256 1.44333,-2.76327 3.03226,-4.22464 4.76679,-4.38411 0.62252,0.01 1.05788,0.25653 1.30608,0.74039 0.24816,0.48392 0.3674,1.14666 0.35772,1.98824 z"
         style="fill:#55be78;fill-opacity:1"
         id="path3054"
         inkscape:connector-curvature="0" />
      <path
         d="m -179.86193,183.01992 -3.26105,15.30697 0,-0.26621 c 0.0125,-0.98577 -0.41181,-1.79271 -1.27281,-2.42083 -0.86104,-0.62805 -2.23367,-0.95249 -4.1179,-0.97332 -3.85675,0.12122 -7.05042,1.46869 -9.58103,4.04242 -2.53063,2.57378 -4.41791,5.64667 -5.66185,9.21868 -1.24395,3.57206 -1.86428,6.91609 -1.86099,10.03211 0.086,3.91132 0.9955,6.68709 2.72863,8.32732 1.73312,1.64023 3.77405,2.43608 6.12278,2.38755 2.35288,-0.0638 4.33558,-0.70157 5.94809,-1.91337 1.61249,-1.2118 2.91302,-2.61494 3.90161,-4.20941 0.28006,1.869 0.9844,3.28878 2.11303,4.25932 1.12859,0.97055 2.59828,1.4586 4.40907,1.46415 1.89255,0.18163 4.09708,-0.44784 6.61361,-1.88842 2.51646,-1.44057 4.77091,-4.78203 6.76335,-10.02439 l -2.79519,0 c -0.49917,1.69986 -1.19797,3.0919 -2.09639,4.17614 -0.89848,1.08425 -1.99659,1.64439 -3.29432,1.68044 -0.92898,0.0139 -1.61669,-0.16361 -2.06311,-0.53242 -0.44648,-0.3688 -0.66832,-1.01214 -0.66552,-1.93001 -0.001,-0.2967 0.018,-0.61837 0.0582,-0.96501 0.0402,-0.34661 0.10951,-0.73483 0.20798,-1.16465 l 7.65348,-35.9381 z m -7.12107,33.67533 c -0.48945,1.83157 -1.27421,3.20975 -2.35428,4.13454 -1.0801,0.9248 -2.11442,1.38789 -3.10298,1.38928 -0.66276,0.10399 -1.3671,-0.12063 -2.11303,-0.67385 -0.74595,-0.5532 -1.15081,-2.05894 -1.21457,-4.51721 0.0103,-2.19456 0.39642,-4.69724 1.15849,-7.50806 0.76205,-2.81077 1.83839,-5.27402 3.22901,-7.38974 1.39059,-2.11567 3.03385,-3.22815 4.92978,-3.33746 0.97885,0.0472 1.66655,0.33557 2.06311,0.86518 0.39652,0.52967 0.61836,1.01772 0.66552,1.46414 l -3.26105,15.24042 z"
         style="fill:#55be78;fill-opacity:1"
         id="path3056"
         inkscape:connector-curvature="0" />
      <path
         d="m -169.78613,216.36249 c -0.32167,1.3976 -0.47696,2.66209 -0.46587,3.79346 0.006,2.68427 0.79308,4.76957 2.3626,6.25589 1.56951,1.48633 3.88774,2.24059 6.95469,2.26277 4.66684,-0.13351 8.33295,-1.50071 10.99833,-4.10158 2.66535,-2.60086 4.54688,-5.63432 5.6446,-9.10037 1.09767,-3.46603 1.62844,-6.56357 1.59232,-9.29263 -0.0361,-4.17196 -0.7626,-7.1252 -2.17958,-8.85974 -1.41703,-1.73448 -3.30821,-2.5747 -5.67356,-2.52066 -0.63919,-0.0263 -1.37404,0.0763 -2.20454,0.30781 -0.83053,0.23157 -1.91477,0.75013 -3.25272,1.55565 l 3.19449,-14.97421 -9.8497,1.33104 z m 20.36492,-10.44867 c -0.0161,2.40123 -0.36852,4.84558 -1.05744,7.33305 -0.68896,2.48749 -1.61822,4.58675 -2.78779,6.29779 -1.16961,1.71105 -2.48339,2.60252 -3.94136,2.67441 -1.19517,-0.007 -2.08253,-0.27591 -2.66208,-0.80695 -0.57957,-0.53102 -0.86796,-1.2825 -0.86518,-2.25445 -1e-5,-0.47695 0.0666,-0.98718 0.19966,-1.53069 l 3.66036,-16.90422 c 0.42564,-0.4284 1.05511,-0.7362 1.88841,-0.92341 0.83327,-0.18715 1.51266,-0.27866 2.03816,-0.27452 1.19514,0.0624 2.0825,0.71962 2.66208,1.9716 0.57954,1.25204 0.86793,2.7245 0.86518,4.41739 z"
         style="fill:#55be78;fill-opacity:1"
         id="path3058"
         inkscape:connector-curvature="0" />
      <path
         d="m -117.9178,194.99929 -0.73207,3.52726 0,-0.46587 c 0.0125,-0.98577 -0.41182,-1.79271 -1.27281,-2.42083 -0.86104,-0.62805 -2.23367,-0.95249 -4.11791,-0.97332 -3.85674,0.12122 -7.05041,1.46869 -9.58103,4.04242 -2.53062,2.57378 -4.4179,5.64667 -5.66185,9.21868 -1.24394,3.57206 -1.86427,6.91609 -1.86099,10.03211 0.086,3.91132 0.99551,6.68709 2.72864,8.32732 1.73312,1.64023 3.77404,2.43608 6.12278,2.38755 2.3515,-0.0638 4.33696,-0.70157 5.95641,-1.91337 1.61941,-1.2118 2.93936,-2.61494 3.95984,-4.20941 0.2135,2.00211 0.88457,3.52171 2.0132,4.55881 1.12859,1.0371 2.63156,1.55842 4.5089,1.56397 1.89255,0.16499 4.09708,-0.53103 6.61361,-2.08807 2.51646,-1.55704 4.77091,-4.96505 6.76335,-10.22405 l -2.79519,0 c -0.49917,1.71649 -1.19797,3.17509 -2.09639,4.37579 -0.89848,1.20072 -1.99659,1.82742 -3.29432,1.8801 -0.92898,-0.003 -1.61669,-0.24679 -2.06311,-0.73208 -0.44649,-0.48526 -0.66833,-1.19515 -0.66552,-2.12966 -0.001,-0.2967 0.018,-0.61837 0.0582,-0.96501 0.0402,-0.34661 0.1095,-0.73483 0.20797,-1.16465 l 4.79175,-22.62769 z m -4.05968,3.79346 c 1.04541,0.0555 1.76639,0.37716 2.16294,0.96501 0.39652,0.5879 0.58509,1.10922 0.5657,1.56397 l -3.1945,15.04076 c -0.45895,1.93279 -1.23816,3.39139 -2.33764,4.37579 -1.09951,0.98442 -2.16157,1.47802 -3.18618,1.48079 -0.66276,0.10399 -1.3671,-0.12063 -2.11303,-0.67385 -0.74594,-0.5532 -1.1508,-2.05894 -1.21457,-4.51721 0.0103,-2.19456 0.39643,-4.69724 1.1585,-7.50806 0.76205,-2.81077 1.83838,-5.27402 3.22901,-7.38974 1.39059,-2.11567 3.03385,-3.22815 4.92977,-3.33746 z"
         style="fill:#55be78;fill-opacity:1"
         id="path3060"
         inkscape:connector-curvature="0" />
      <path
         d="m -86.74502,204.58278 c 0.809698,0.53244 1.586137,0.79865 2.329321,0.79862 0.991324,10e-4 1.82045,-0.40067 2.48738,-1.20625 0.666884,-0.80554 1.013509,-2.02288 1.039877,-3.65204 0.06237,-1.59445 -0.428453,-2.99759 -1.472465,-4.20942 -1.044057,-1.21177 -3.015658,-1.84956 -5.914809,-1.91337 -4.474199,0.14957 -8.022816,1.62522 -10.64586,4.42694 -2.623054,2.80178 -4.495554,6.03243 -5.617484,9.69195 -1.12193,3.65955 -1.66832,6.85076 -1.63915,9.57363 0.0416,3.73108 0.98996,6.43475 2.8451,8.11103 1.85513,1.67628 4.36747,2.49986 7.537015,2.47074 4.397965,-0.13033 8.080507,-1.417 11.047636,-3.86002 2.967088,-2.44301 5.385142,-5.26037 7.25417,-8.4521 l -2.262768,0 c -1.618071,1.93972 -3.340103,3.5342 -5.166102,4.78342 -1.826039,1.24925 -4.030572,1.89535 -6.613606,1.93833 -1.597261,0.0499 -2.795196,-0.31612 -3.59381,-1.09811 -0.798633,-0.78198 -1.197945,-2.2794 -1.197936,-4.49226 0.02752,-2.56717 0.45312,-5.35249 1.276813,-8.35598 0.823674,-3.00344 1.880289,-5.5965 3.169848,-7.77919 1.289533,-2.18263 2.646865,-3.32634 4.071998,-3.43112 0.63084,0.01 1.099476,0.25653 1.405911,0.74039 0.306397,0.48392 0.458912,1.14666 0.457545,1.98824 -1.9e-5,1.1425 -0.266227,2.45136 -0.798624,3.92657 z"
         style="fill:#55be78;fill-opacity:1"
         id="path3062"
         inkscape:connector-curvature="0" />
      <path
         d="m -54.88186,194.99929 -12.844541,10.11591 4.991402,-23.42632 -9.849699,1.33104 -9.650044,45.25538 9.583492,0 3.460705,-16.43835 c 0.924785,-0.77226 1.787188,-1.37401 2.58721,-1.80522 0.799996,-0.43119 1.579209,-0.65025 2.337639,-0.65721 0.856842,0.0125 1.472448,0.30367 1.846819,0.8735 0.374337,0.56987 0.557355,1.34354 0.549054,2.321 0.0014,0.36883 -0.01804,0.76259 -0.05823,1.1813 -0.04023,0.41874 -0.109552,0.84578 -0.207976,1.28113 l -0.532416,2.59553 c -0.266225,1.2534 -0.399329,2.40697 -0.399312,3.4607 0.0083,2.44163 0.723735,4.31341 2.146303,5.61533 1.422529,1.30192 3.502278,1.95912 6.239252,1.9716 1.612473,0.18579 3.561891,-0.46864 5.848259,-1.96328 2.286307,-1.49465 4.418742,-4.94426 6.397313,-10.34884 l -2.795185,0 c -0.690511,1.75809 -1.439221,3.16677 -2.246132,4.22605 -0.806975,1.05929 -1.92172,1.6028 -3.344238,1.63053 -1.010787,-0.0194 -1.701263,-0.26343 -2.071432,-0.73208 -0.370223,-0.46863 -0.544921,-1.04541 -0.524097,-1.73035 0.0055,-0.36741 0.04434,-0.73068 0.116467,-1.08979 0.07207,-0.35909 0.144169,-0.70572 0.216293,-1.03987 l 0.732072,-3.32761 c 0.188536,-0.87625 0.277272,-1.71924 0.266209,-2.52897 0.0027,-2.18788 -0.601769,-4.01806 -1.813544,-5.49055 -1.211827,-1.47244 -3.047551,-2.23778 -5.507179,-2.29604 -0.366057,0.003 -0.732093,0.0305 -1.098109,0.0832 -0.366055,0.0527 -0.732091,0.11372 -1.098108,0.18302 l 13.310405,-9.25073 z"
         style="fill:#55be78;fill-opacity:1"
         id="path3064"
         inkscape:connector-curvature="0" />
      <path
         d="m -19.836588,216.36249 c -0.640588,0.53797 -1.37266,1.09257 -2.196217,1.6638 -0.823603,0.57124 -1.688779,1.12584 -2.595528,1.6638 0.09842,-0.39653 0.167745,-0.80139 0.207974,-1.21458 0.04019,-0.41316 0.0596,-0.8513 0.05823,-1.3144 -0.0033,-1.36266 -0.07068,-2.83009 -0.202123,-4.40229 -0.131482,-1.57217 -0.30731,-3.85795 -0.527486,-6.85733 -0.220217,-2.99933 -0.465062,-7.3211 -0.734536,-12.96531 l -9.849699,1.33104 c -1.010769,3.26246 -2.16711,6.53737 -3.469027,9.82474 -1.301929,3.28741 -2.874218,6.57896 -4.716872,9.87465 -0.933116,0.44508 -1.745605,1.20211 -2.437469,2.27109 -0.691863,1.069 -1.055125,2.37509 -1.089788,3.91825 -0.01941,2.13106 0.751486,4.05829 2.312684,5.78171 1.561197,1.72342 4.029165,2.63574 7.403911,2.73695 1.745595,0.0166 3.561909,-0.28285 5.448947,-0.89845 1.887013,-0.61561 3.553585,-1.64716 4.999721,-3.09467 1.547314,-0.8832 3.194474,-1.99517 4.941486,-3.33592 1.746967,-1.34074 3.493956,-3.00177 5.240973,-4.98308 z m -19.300086,0 c -0.0097,-0.56707 -0.156681,-1.0468 -0.440908,-1.43919 -0.284238,-0.39237 -0.647501,-0.68908 -1.089789,-0.89013 1.102261,-2.11717 2.108859,-4.20524 3.019797,-6.26421 0.910922,-2.05893 1.701227,-4.16364 2.370917,-6.31413 0.343841,4.92488 0.637779,8.40222 0.881813,10.43203 0.244013,2.02985 0.371571,3.81012 0.382675,5.3408 -0.05824,2.29606 -0.657211,3.90994 -1.796904,4.84166 -1.139713,0.93174 -2.470752,1.38096 -3.993122,1.34768 -1.450283,0.001 -2.49293,-0.38405 -3.127945,-1.15634 -0.635019,-0.77227 -0.945595,-1.93971 -0.931728,-3.5023 0.178856,0.32722 0.436745,0.55461 0.773668,0.68216 0.336918,0.12756 0.677997,0.18857 1.023237,0.18302 0.879037,-0.036 1.583379,-0.3799 2.113026,-1.03156 0.529637,-0.65165 0.801391,-1.39481 0.815263,-2.22949 z"
         id="path3066"
         inkscape:connector-curvature="0" />
      <path
         d="m -14.724212,192.53686 -11.114188,52.37644 10.049356,-2.39587 3.460705,-16.23869 c 0.348004,0.65304 0.966382,1.21041 1.855138,1.67212 0.8887373,0.4617 2.1559973,0.70295 3.8017839,0.72375 4.2667076,-0.12365 7.59430541,-1.48838 9.9828034,-4.09418 2.3884518,-2.60579 4.0596449,-5.71073 5.0135843,-9.31482 0.9538833,-3.60406 1.4123528,-6.96535 1.3754098,-10.08386 -0.05549,-3.90298 -0.8430219,-6.64547 -2.3625978,-8.2275 -1.5196301,-1.58196 -3.4385445,-2.34454 -5.7567489,-2.28772 -1.65966168,0.0153 -3.1321242,0.28426 -4.417392,0.80694 -1.2853017,0.52275 -2.4083654,1.20768 -3.3691946,2.05479 l 1.0648323,-4.9914 z m 5.9896822,30.34773 c -0.7584265,-0.018 -1.3379832,-0.18163 -1.7386722,-0.49083 -0.400707,-0.30918 -0.664142,-0.65581 -0.790305,-1.03987 l 3.9265697,-18.63457 c 0.6530287,-1.06758 1.393419,-1.87729 2.2211732,-2.42915 0.8277249,-0.5518 1.6180295,-0.8291 2.3709163,-0.8319 0.6627297,-0.0901 1.3670713,0.18998 2.11302674,0.84022 0.7459172,0.6503 1.15077493,2.2115 1.21457442,4.6836 0.0143582,2.19049 -0.27321251,4.66441 -0.86271288,7.42178 -0.58953937,2.75741 -1.56727798,5.16724 -2.93321878,7.22952 -1.365974,2.0623 -3.2064226,3.14603 -5.5213515,3.2512 z"
         id="path3068"
         inkscape:connector-curvature="0" />
      <path
         d="m 20.399013,217.49387 c 0.0014,-0.40207 0.01524,-0.82911 0.0416,-1.28113 0.02634,-0.45198 0.05684,-0.9123 0.09151,-1.38095 4.131759,-0.31056 7.681197,-1.75252 10.648323,-4.32588 2.967088,-2.57333 4.519967,-5.81219 4.658642,-9.7166 0.06514,-1.722 -0.414587,-3.20278 -1.439188,-4.44234 -1.024647,-1.2395 -2.985156,-1.88838 -5.881534,-1.94665 -4.516924,0.1508 -8.091011,1.63138 -10.722271,4.44173 -2.631274,2.81041 -4.504588,6.04599 -5.619949,9.70674 -1.115363,3.66079 -1.657638,6.84213 -1.626827,9.54405 0.0416,3.73108 0.989962,6.43475 2.8451,8.11103 1.855135,1.67628 4.367471,2.49986 7.537016,2.47074 4.397965,-0.13033 8.080507,-1.417 11.047636,-3.86002 2.967087,-2.44301 5.385142,-5.26037 7.25417,-8.4521 l -2.262769,0 c -1.61807,1.93972 -3.340102,3.5342 -5.166101,4.78342 -1.826039,1.24925 -4.030573,1.89535 -6.613607,1.93833 -1.59726,0.0499 -2.795196,-0.31612 -3.593809,-1.09811 -0.798633,-0.78198 -1.197945,-2.2794 -1.197936,-4.49226 z m 10.315563,-16.83766 c -0.08182,2.85344 -1.049599,5.3325 -2.903332,7.43719 -1.853766,2.10473 -4.102668,3.28602 -6.746711,3.54389 0.702945,-3.45375 1.776095,-6.56228 3.219454,-9.3256 1.443332,-2.76327 3.03226,-4.22464 4.766789,-4.38411 0.622519,0.01 1.05788,0.25653 1.306082,0.74039 0.248164,0.48392 0.367403,1.14666 0.357718,1.98824 z"
         id="path3070"
         inkscape:connector-curvature="0" />
      <path
         d="m 44.142825,183.01992 -7.121066,33.34257 c -0.343852,1.60835 -0.521324,3.05031 -0.532416,4.32588 0.04714,2.77855 0.734845,4.80838 2.063113,6.08951 1.328264,1.28112 3.014247,1.91337 5.057953,1.89673 1.917522,0.16499 4.221884,-0.53103 6.913092,-2.08807 2.691182,-1.55704 5.045457,-4.96505 7.062833,-10.22405 l -2.795185,0 c -0.524115,1.69986 -1.322738,3.0919 -2.395873,4.17614 -1.073165,1.08425 -2.2711,1.64439 -3.593809,1.68044 -0.928965,0.0139 -1.616669,-0.16361 -2.063113,-0.53242 -0.446463,-0.3688 -0.668303,-1.01214 -0.66552,-1.93001 -0.0014,-0.2967 0.01802,-0.61837 0.05823,-0.96501 0.0402,-0.34661 0.109523,-0.73483 0.207974,-1.16465 l 7.653483,-35.9381 z"
         id="path3072"
         inkscape:connector-curvature="0" />
      <path
         d="m 56.892947,223.2839 c 0.03605,1.50019 0.546279,2.7425 1.530696,3.72691 0.98441,0.98442 2.226714,1.49465 3.726913,1.5307 1.502958,-0.036 2.756353,-0.54628 3.760189,-1.5307 1.003813,-0.98441 1.525137,-2.22672 1.563973,-3.72691 -0.03883,-1.50296 -0.560159,-2.75636 -1.563973,-3.76019 -1.003837,-1.00382 -2.257232,-1.52514 -3.760189,-1.56397 -1.500198,0.0388 -2.742501,0.56015 -3.726913,1.56397 -0.984419,1.00383 -1.49465,2.25723 -1.530696,3.76019 z"
         id="path3074"
         inkscape:connector-curvature="0" />
      <path
         d="m 91.544943,204.18347 c -0.124805,2.28774 -0.623945,5.08293 -1.497422,8.38555 -0.873512,3.30266 -1.372651,6.16439 -1.497419,8.58521 -0.03468,1.973 0.550424,3.70058 1.755309,5.18274 1.204849,1.48217 3.237457,2.26138 6.097829,2.33764 1.825995,0.16915 3.86415,-0.51855 6.11447,-2.06311 2.25026,-1.54456 4.33832,-4.96089 6.26421,-10.24901 l -2.79519,0 c -0.69051,1.75809 -1.43922,3.16677 -2.24613,4.22605 -0.80697,1.05929 -1.92172,1.6028 -3.34424,1.63053 -0.984442,-0.0125 -1.677692,-0.27037 -2.079751,-0.77367 -0.402111,-0.5033 -0.59622,-1.17713 -0.582328,-2.02152 0.133078,-2.00903 0.665494,-4.66279 1.597248,-7.96129 0.931701,-3.29846 1.464121,-6.36817 1.597251,-9.20913 -0.0416,-2.64264 -0.74042,-4.56156 -2.096392,-5.75675 -1.356023,-1.19513 -3.119649,-1.78301 -5.290885,-1.76363 -1.052375,-0.0443 -2.25863,0.17751 -3.618767,0.66552 -1.360173,0.48808 -2.749445,1.50854 -4.167819,3.06139 l 0.732072,-3.4607 -9.583491,0 -7.054515,33.27601 9.583492,0 4.525537,-21.3632 c 0.503287,-1.71092 1.193764,-3.14733 2.071431,-4.30924 0.877641,-1.16187 1.917515,-1.76638 3.119627,-1.81355 0.798607,0.004 1.397574,0.29536 1.796904,0.8735 0.399294,0.5782 0.59895,1.41841 0.598969,2.52066 z"
         id="path3076"
         inkscape:connector-curvature="0" />
      <path
         d="m 113.16541,183.01992 -7.12107,33.34257 c -0.34385,1.60835 -0.52132,3.05031 -0.53241,4.32588 0.0471,2.77855 0.73484,4.80838 2.06311,6.08951 1.32826,1.28112 3.01425,1.91337 5.05795,1.89673 1.91752,0.16499 4.22189,-0.53103 6.91309,-2.08807 2.69119,-1.55704 5.04546,-4.96505 7.06284,-10.22405 l -2.79519,0 c -0.52411,1.69986 -1.32274,3.0919 -2.39587,4.17614 -1.07317,1.08425 -2.2711,1.64439 -3.59381,1.68044 -0.92896,0.0139 -1.61667,-0.16361 -2.06311,-0.53242 -0.44647,-0.3688 -0.66831,-1.01214 -0.66552,-1.93001 -0.001,-0.2967 0.018,-0.61837 0.0582,-0.96501 0.0402,-0.34661 0.10952,-0.73483 0.20798,-1.16465 l 7.65348,-35.9381 z"
         id="path3078"
         inkscape:connector-curvature="0" />
    </g>
    <path
       inkscape:connector-curvature="0"
       style="fill:#55be78;fill-opacity:1"
       d="M 20.409046,46.044122 -44.006648,46.189608 -26.931867,59.075611 -48.311691,74.216 c -13.341354,-12.955298 -34.52617,-20.899844 -56.983599,-20.899844 -37.64563,0 -71.26592,22.203744 -71.26592,52.576824 0,10.7727 4.39136,21.34595 12.15881,29.55354 0.32808,9.61793 -6.07321,23.41632 -11.8389,33.46587 15.45298,-2.47001 37.42117,-7.925 47.38462,-13.32236 54.582133,11.74617 94.429615,-17.5971 94.827307,-49.21711 L -6.3956459,86.79666 0.97817252,107.46373 20.409046,46.044122 z M 10.213631,53.839751 -0.63619715,88.12013 -4.9848949,75.91769 -71.24766,121.22243 a 9.3091339,9.3091339 0 0 1 -9.497253,0.59633 l -25.103097,-12.84244 -28.66634,22.25242 a 9.3091339,9.3091339 0 1 1 -11.41712,-14.70402 l 33.34956,-25.88844 a 9.3091339,9.3091339 0 0 1 9.94816,-0.93083 l 25.45211,13.03149 60.92507,-41.654208 -9.482731,-7.155675 35.952932,-0.08729 z m -113.690951,8.624643 c 5.804509,-0.01721 11.417867,0.594525 16.696594,1.745299 -5.374459,0.327268 -10.959387,1.080865 -16.652924,2.283427 -31.69262,6.69376 -57.09778,25.32037 -63.52849,44.79573 -1.32911,-23.61705 23.10523,-45.120675 55.45651,-48.402651 2.70714,-0.274683 5.38992,-0.413936 8.02831,-0.421805 z"
       id="speech-bubble-2-icon-3-35-9-94-6-0-6-3-7-0-2-2-0-1" />
    <g
       style="font-size:41.16241455px;font-style:normal;font-variant:normal;font-weight:normal;font-stretch:normal;line-height:125%;letter-spacing:0px;word-spacing:0px;fill:#888888;fill-opacity:1;stroke:none;font-family:Open Sans;-inkscape-font-specification:Open Sans"
       id="text2987"
       transform="matrix(1.1014055,0,0,1.1014055,8.5768958,4.2547348)">
      <path
         d="m -366.7179,-32.509399 -1.86328,-6.117188 -9.36914,0 -1.86328,6.117188 -5.87109,0 9.07031,-25.804688 6.66211,0 9.10547,25.804688 z m -3.16406,-10.6875 c -1.72267,-5.542953 -2.69239,-8.677715 -2.90918,-9.404297 -0.21681,-0.726542 -0.37208,-1.30076 -0.46582,-1.722657 -0.38673,1.500021 -1.49415,5.209001 -3.32226,11.126954 z"
         style="font-size:36px;font-weight:600;fill:#888888;-inkscape-font-specification:Open Sans Semi-Bold"
         id="path2989"
         inkscape:connector-curvature="0" />
      <path
         d="m -347.1886,-48.136353 -4.64062,0 0,15.626954 -5.36133,0 0,-15.626954 -2.95313,0 0,-2.583984 2.95313,-1.441406 0,-1.441406 c -1e-5,-2.238258 0.55078,-3.873022 1.65234,-4.904297 1.10156,-1.031223 2.86523,-1.546848 5.29102,-1.546875 1.85155,2.7e-5 3.49803,0.275418 4.93945,0.826172 l -1.37109,3.9375 c -1.07814,-0.339821 -2.07423,-0.509743 -2.98828,-0.509766 -0.76173,2.3e-5 -1.31251,0.225609 -1.65235,0.676758 -0.33985,0.451194 -0.50977,1.028342 -0.50976,1.731445 l 0,1.230469 4.64062,0 z"
         style="font-size:36px;font-weight:600;fill:#888888;-inkscape-font-specification:Open Sans Semi-Bold"
         id="path2991"
         inkscape:connector-curvature="0" />
      <path
         d="m -330.41907,-38.345337 c -1e-5,2.015629 -0.70021,3.550784 -2.10058,4.605469 -1.40041,1.054688 -3.49513,1.582031 -6.28418,1.582031 -1.4297,0 -2.64845,-0.09668 -3.65625,-0.290039 -1.00782,-0.193359 -1.95118,-0.477539 -2.83008,-0.852539 l 0,-4.429688 c 0.99609,0.468755 2.11816,0.861333 3.36621,1.177735 1.24804,0.31641 2.34667,0.474613 3.2959,0.474609 1.9453,4e-6 2.91796,-0.562496 2.91797,-1.6875 -10e-6,-0.421869 -0.12892,-0.764642 -0.38672,-1.02832 -0.25782,-0.263665 -0.70314,-0.562493 -1.33594,-0.896484 -0.63282,-0.333977 -1.47657,-0.723625 -2.53125,-1.168946 -1.51172,-0.632803 -2.62207,-1.21874 -3.33105,-1.757812 -0.70899,-0.539052 -1.22462,-1.157216 -1.54688,-1.854492 -0.32227,-0.697253 -0.4834,-1.555651 -0.4834,-2.575196 0,-1.746077 0.67676,-3.096662 2.03028,-4.051758 1.35351,-0.955058 3.27245,-1.432597 5.75683,-1.432617 2.36718,2e-5 4.66991,0.515645 6.90821,1.546875 l -1.61719,3.867188 c -0.98439,-0.42186 -1.90431,-0.767563 -2.75977,-1.03711 -0.85548,-0.269515 -1.72852,-0.40428 -2.61914,-0.404297 -1.58204,1.7e-5 -2.37305,0.42775 -2.37305,1.283204 0,0.480483 0.25488,0.896498 0.76465,1.248046 0.50976,0.351576 1.62597,0.87306 3.34864,1.564454 1.53514,0.621105 2.66014,1.201182 3.375,1.740234 0.71482,0.539072 1.24217,1.160165 1.58203,1.863281 0.33982,0.703133 0.50975,1.541023 0.50976,2.513672 z"
         style="font-size:36px;font-weight:600;fill:#888888;-inkscape-font-specification:Open Sans Semi-Bold"
         id="path2993"
         inkscape:connector-curvature="0" />
      <path
         d="m -317.92102,-36.429321 c 0.93749,4e-6 2.06249,-0.205074 3.375,-0.615235 l 0,3.990235 c -1.33595,0.597656 -2.97657,0.896484 -4.92188,0.896484 -2.14453,0 -3.70606,-0.541992 -4.68457,-1.625976 -0.97852,-1.083982 -1.46777,-2.709957 -1.46777,-4.87793 l 0,-9.47461 -2.56641,0 0,-2.267578 2.95313,-1.792968 1.54687,-4.148438 3.42774,0 0,4.183594 5.50195,0 0,4.02539 -5.50195,0 0,9.47461 c -10e-6,0.761724 0.21386,1.324223 0.6416,1.6875 0.42772,0.363285 0.99315,0.544926 1.69629,0.544922 z"
         style="font-size:36px;font-weight:600;fill:#888888;-inkscape-font-specification:Open Sans Semi-Bold"
         id="path2995"
         inkscape:connector-curvature="0" />
      <path
         d="m -296.66907,-32.509399 -0.7207,-2.513672 -0.28125,0 c -0.57423,0.914064 -1.38869,1.620118 -2.44336,2.118164 -1.0547,0.498047 -2.25587,0.74707 -3.60352,0.74707 -2.3086,0 -4.04883,-0.618164 -5.2207,-1.854492 -1.17188,-1.236325 -1.75781,-3.014644 -1.75781,-5.334961 l 0,-12.814453 5.36133,0 0,11.478515 c -10e-6,1.417976 0.25194,2.481451 0.75586,3.19043 0.50389,0.708989 1.30663,1.063481 2.4082,1.063477 1.49999,4e-6 2.58397,-0.500972 3.25195,-1.50293 0.66796,-1.001947 1.00194,-2.663078 1.00196,-4.983398 l 0,-9.246094 5.36132,0 0,19.652344 z"
         style="font-size:36px;font-weight:600;fill:#888888;-inkscape-font-specification:Open Sans Semi-Bold"
         id="path2997"
         inkscape:connector-curvature="0" />
      <path
         d="m -280.67297,-32.157837 c -2.3086,0 -4.12208,-0.896484 -5.44043,-2.689453 -1.31836,-1.792965 -1.97754,-4.277337 -1.97754,-7.453125 0,-3.222643 0.67089,-5.733383 2.01269,-7.532227 1.34179,-1.798809 3.19043,-2.698222 5.5459,-2.698242 2.47265,2e-5 4.35936,0.960957 5.66016,2.882813 l 0.17578,0 c -0.26955,-1.464825 -0.40431,-2.771465 -0.4043,-3.919922 l 0,-6.292969 5.37891,0 0,27.351563 -4.11328,0 -1.03711,-2.548829 -0.22852,0 c -1.21876,1.933595 -3.07618,2.900391 -5.57226,2.900391 z m 1.88086,-4.271484 c 1.37108,4e-6 2.37596,-0.398433 3.01464,-1.195313 0.63866,-0.796869 0.98729,-2.150383 1.0459,-4.060547 l 0,-0.580078 c -1e-5,-2.109363 -0.32521,-3.62108 -0.97558,-4.535156 -0.65041,-0.914047 -1.70802,-1.371078 -3.17285,-1.371094 -1.19533,1.6e-5 -2.12404,0.506851 -2.78614,1.520508 -0.66211,1.013685 -0.99317,2.487316 -0.99316,4.420898 -1e-5,1.933602 0.33398,3.383796 1.00195,4.350586 0.66796,0.966802 1.62304,1.4502 2.86524,1.450196 z"
         style="font-size:36px;font-weight:600;fill:#888888;-inkscape-font-specification:Open Sans Semi-Bold"
         id="path2999"
         inkscape:connector-curvature="0" />
      <path
         d="m -255.97571,-48.716431 c -1.13673,1.7e-5 -2.02735,0.360368 -2.67187,1.081055 -0.64454,0.720718 -1.01368,1.743177 -1.10742,3.067383 l 7.52343,0 c -0.0234,-1.324206 -0.36915,-2.346665 -1.03711,-3.067383 -0.66798,-0.720687 -1.57032,-1.081038 -2.70703,-1.081055 z m 0.75586,16.558594 c -3.16407,0 -5.63672,-0.873046 -7.41797,-2.619141 -1.78125,-1.746089 -2.67187,-4.218743 -2.67187,-7.417968 0,-3.292956 0.82324,-5.838852 2.46972,-7.637696 1.64648,-1.798809 3.92285,-2.698222 6.82911,-2.698242 2.77733,2e-5 4.93943,0.791035 6.48632,2.373047 1.54686,1.582047 2.3203,3.767592 2.32032,6.556641 l 0,2.601562 -12.67383,0 c 0.0586,1.523445 0.50976,2.712897 1.35351,3.56836 0.84374,0.855472 2.02734,1.283206 3.55079,1.283203 1.18358,3e-6 2.30272,-0.123043 3.35742,-0.369141 1.05467,-0.246089 2.15623,-0.638667 3.30468,-1.177734 l 0,4.148437 c -0.93751,0.468751 -1.93947,0.817383 -3.00585,1.045899 -1.06643,0.228515 -2.36721,0.342773 -3.90235,0.342773 z"
         style="font-size:36px;font-weight:600;fill:#888888;-inkscape-font-specification:Open Sans Semi-Bold"
         id="path3001"
         inkscape:connector-curvature="0" />
      <path
         d="m -234.67102,-48.716431 c -1.13673,1.7e-5 -2.02735,0.360368 -2.67188,1.081055 -0.64453,0.720718 -1.01367,1.743177 -1.10742,3.067383 l 7.52344,0 c -0.0234,-1.324206 -0.36915,-2.346665 -1.03711,-3.067383 -0.66798,-0.720687 -1.57032,-1.081038 -2.70703,-1.081055 z m 0.75586,16.558594 c -3.16407,0 -5.63673,-0.873046 -7.41797,-2.619141 -1.78125,-1.746089 -2.67188,-4.218743 -2.67187,-7.417968 -1e-5,-3.292956 0.82323,-5.838852 2.46972,-7.637696 1.64648,-1.798809 3.92285,-2.698222 6.8291,-2.698242 2.77733,2e-5 4.93944,0.791035 6.48633,2.373047 1.54686,1.582047 2.32029,3.767592 2.32031,6.556641 l 0,2.601562 -12.67382,0 c 0.0586,1.523445 0.50975,2.712897 1.35351,3.56836 0.84374,0.855472 2.02733,1.283206 3.55078,1.283203 1.18358,3e-6 2.30272,-0.123043 3.35742,-0.369141 1.05468,-0.246089 2.15624,-0.638667 3.30469,-1.177734 l 0,4.148437 c -0.93752,0.468751 -1.93947,0.817383 -3.00586,1.045899 -1.06642,0.228515 -2.3672,0.342773 -3.90234,0.342773 z"
         style="font-size:36px;font-weight:600;fill:#888888;-inkscape-font-specification:Open Sans Semi-Bold"
         id="path3003"
         inkscape:connector-curvature="0" />
      <path
         d="m -210.53625,-52.530884 c 0.72654,2e-5 1.33006,0.05275 1.81054,0.158203 l -0.40429,5.027344 c -0.43361,-0.117172 -0.96096,-0.175766 -1.58204,-0.175781 -1.71095,1.5e-5 -3.04395,0.439468 -3.99902,1.318359 -0.95509,0.878919 -1.43262,2.109387 -1.43262,3.691406 l 0,10.001954 -5.36132,0 0,-19.652344 4.06054,0 0.79102,3.304687 0.26367,0 c 0.60937,-1.101545 1.43261,-1.989239 2.46973,-2.663086 1.03709,-0.673808 2.16502,-1.010722 3.38379,-1.010742 z"
         style="font-size:36px;font-weight:600;fill:#888888;-inkscape-font-specification:Open Sans Semi-Bold"
         id="path3005"
         inkscape:connector-curvature="0" />
      <path
         d="m -191.41125,-38.345337 c -2e-5,2.015629 -0.70022,3.550784 -2.10059,4.605469 -1.4004,1.054688 -3.49513,1.582031 -6.28418,1.582031 -1.42969,0 -2.64844,-0.09668 -3.65625,-0.290039 -1.00782,-0.193359 -1.95117,-0.477539 -2.83008,-0.852539 l 0,-4.429688 c 0.99609,0.468755 2.11816,0.861333 3.36621,1.177735 1.24804,0.31641 2.34667,0.474613 3.2959,0.474609 1.9453,4e-6 2.91796,-0.562496 2.91797,-1.6875 -1e-5,-0.421869 -0.12892,-0.764642 -0.38672,-1.02832 -0.25782,-0.263665 -0.70313,-0.562493 -1.33594,-0.896484 -0.63282,-0.333977 -1.47657,-0.723625 -2.53125,-1.168946 -1.51172,-0.632803 -2.62207,-1.21874 -3.33105,-1.757812 -0.70899,-0.539052 -1.22461,-1.157216 -1.54688,-1.854492 -0.32226,-0.697253 -0.4834,-1.555651 -0.48339,-2.575196 -1e-5,-1.746077 0.67675,-3.096662 2.03027,-4.051758 1.35351,-0.955058 3.27245,-1.432597 5.75683,-1.432617 2.36718,2e-5 4.66991,0.515645 6.90821,1.546875 l -1.61719,3.867188 c -0.98439,-0.42186 -1.90431,-0.767563 -2.75977,-1.03711 -0.85548,-0.269515 -1.72852,-0.40428 -2.61914,-0.404297 -1.58204,1.7e-5 -2.37305,0.42775 -2.37304,1.283204 -1e-5,0.480483 0.25487,0.896498 0.76465,1.248046 0.50975,0.351576 1.62596,0.87306 3.34863,1.564454 1.53514,0.621105 2.66014,1.201182 3.375,1.740234 0.71483,0.539072 1.24217,1.160165 1.58203,1.863281 0.33983,0.703133 0.50975,1.541023 0.50977,2.513672 z"
         style="font-size:36px;font-weight:600;fill:#888888;-inkscape-font-specification:Open Sans Semi-Bold"
         id="path3007"
         inkscape:connector-curvature="0" />
      <path
         d="m -179.21204,-32.157837 c -6.11719,0 -9.17578,-3.357419 -9.17578,-10.072266 0,-3.33983 0.83203,-5.891585 2.4961,-7.655273 1.66405,-1.763653 4.04882,-2.645488 7.15429,-2.645508 2.27343,2e-5 4.31249,0.445332 6.11719,1.335938 l -1.58203,4.148437 c -0.84377,-0.339829 -1.62892,-0.618149 -2.35547,-0.834961 -0.72657,-0.216781 -1.45314,-0.325179 -2.17969,-0.325195 -2.78907,1.6e-5 -4.1836,1.980482 -4.18359,5.941406 -1e-5,3.843756 1.39452,5.765629 4.18359,5.765625 1.03124,4e-6 1.98632,-0.137691 2.86524,-0.413086 0.87889,-0.275386 1.75779,-0.706049 2.63672,-1.291992 l 0,4.587891 c -0.86721,0.550782 -1.74318,0.931641 -2.62793,1.142578 -0.88478,0.210937 -2.00099,0.316406 -3.34864,0.316406 z"
         style="font-size:36px;font-weight:600;fill:#888888;-inkscape-font-specification:Open Sans Semi-Bold"
         id="path3009"
         inkscape:connector-curvature="0" />
      <path
         d="m -157.73157,-52.530884 c 0.72655,2e-5 1.33007,0.05275 1.81055,0.158203 l -0.4043,5.027344 c -0.43361,-0.117172 -0.96095,-0.175766 -1.58203,-0.175781 -1.71095,1.5e-5 -3.04395,0.439468 -3.99902,1.318359 -0.95509,0.878919 -1.43263,2.109387 -1.43262,3.691406 l 0,10.001954 -5.36133,0 0,-19.652344 4.06055,0 0.79102,3.304687 0.26367,0 c 0.60936,-1.101545 1.4326,-1.989239 2.46972,-2.663086 1.0371,-0.673808 2.16503,-1.010722 3.38379,-1.010742 z"
         style="font-size:36px;font-weight:600;fill:#888888;-inkscape-font-specification:Open Sans Semi-Bold"
         id="path3011"
         inkscape:connector-curvature="0" />
      <path
         d="m -152.54602,-57.241821 c 0,-1.746068 0.97265,-2.619114 2.91797,-2.619141 1.9453,2.7e-5 2.91796,0.873073 2.91797,2.619141 -1e-5,0.832055 -0.24318,1.479515 -0.7295,1.942383 -0.48633,0.462912 -1.21582,0.694358 -2.18847,0.694335 -1.94532,2.3e-5 -2.91797,-0.878883 -2.91797,-2.636718 z m 5.58984,24.732422 -5.36132,0 0,-19.652344 5.36132,0 z"
         style="font-size:36px;font-weight:600;fill:#888888;-inkscape-font-specification:Open Sans Semi-Bold"
         id="path3013"
         inkscape:connector-curvature="0" />
      <path
         d="m -130.55579,-32.157837 c -2.3086,0 -4.11915,-0.83789 -5.43164,-2.513672 l -0.28125,0 c 0.1875,1.640626 0.28125,2.589844 0.28125,2.847656 l 0,7.962891 -5.36132,0 0,-28.300781 4.35937,0 0.75586,2.548828 0.24609,0 c 1.2539,-1.945293 3.11132,-2.917949 5.57227,-2.917969 2.3203,2e-5 4.1367,0.896504 5.44922,2.689453 1.31248,1.792985 1.96873,4.283217 1.96875,7.470703 -2e-5,2.097664 -0.30764,3.919928 -0.92285,5.466797 -0.61526,1.546878 -1.49123,2.724611 -2.62793,3.533203 -1.13674,0.808594 -2.47268,1.212891 -4.00782,1.212891 z m -1.58203,-16.083984 c -1.32423,1.5e-5 -2.29102,0.407242 -2.90039,1.221679 -0.60938,0.814467 -0.92579,2.159192 -0.94922,4.03418 l 0,0.580078 c 0,2.109383 0.31347,3.6211 0.94043,4.535156 0.62695,0.914067 1.62011,1.371098 2.9795,1.371094 2.40232,4e-6 3.6035,-1.980463 3.60351,-5.941406 -1e-5,-1.933582 -0.29591,-3.383776 -0.88769,-4.350586 -0.59182,-0.966782 -1.52053,-1.45018 -2.78614,-1.450195 z"
         style="font-size:36px;font-weight:600;fill:#888888;-inkscape-font-specification:Open Sans Semi-Bold"
         id="path3015"
         inkscape:connector-curvature="0" />
      <path
         d="m -110.28821,-36.429321 c 0.93749,4e-6 2.06249,-0.205074 3.375,-0.615235 l 0,3.990235 c -1.33595,0.597656 -2.97657,0.896484 -4.92187,0.896484 -2.14454,0 -3.70606,-0.541992 -4.68457,-1.625976 -0.97852,-1.083982 -1.46778,-2.709957 -1.46778,-4.87793 l 0,-9.47461 -2.5664,0 0,-2.267578 2.95312,-1.792968 1.54688,-4.148438 3.42773,0 0,4.183594 5.50195,0 0,4.02539 -5.50195,0 0,9.47461 c -1e-5,0.761724 0.21386,1.324223 0.6416,1.6875 0.42773,0.363285 0.99316,0.544926 1.69629,0.544922 z"
         style="font-size:36px;font-weight:600;fill:#888888;-inkscape-font-specification:Open Sans Semi-Bold"
         id="path3017"
         inkscape:connector-curvature="0" />
      <path
         d="m -103.18665,-57.241821 c 0,-1.746068 0.97266,-2.619114 2.91797,-2.619141 1.945308,2.7e-5 2.917964,0.873073 2.917972,2.619141 -8e-6,0.832055 -0.243172,1.479515 -0.729492,1.942383 -0.486336,0.462912 -1.215827,0.694358 -2.18848,0.694335 -1.94531,2.3e-5 -2.91797,-0.878883 -2.91797,-2.636718 z m 5.589848,24.732422 -5.361328,0 0,-19.652344 5.361328,0 z"
         style="font-size:36px;font-weight:600;fill:#888888;-inkscape-font-specification:Open Sans Semi-Bold"
         id="path3019"
         inkscape:connector-curvature="0" />
      <path
         d="m -83.850708,-48.716431 c -1.136729,1.7e-5 -2.027353,0.360368 -2.671875,1.081055 -0.644539,0.720718 -1.013679,1.743177 -1.107422,3.067383 l 7.523438,0 c -0.02345,-1.324206 -0.369155,-2.346665 -1.03711,-3.067383 -0.667981,-0.720687 -1.570324,-1.081038 -2.707031,-1.081055 z m 0.755859,16.558594 c -3.164071,0 -5.636724,-0.873046 -7.417968,-2.619141 -1.781253,-1.746089 -2.671877,-4.218743 -2.671875,-7.417968 -2e-6,-3.292956 0.823239,-5.838852 2.469726,-7.637696 1.646479,-1.798809 3.922844,-2.698222 6.829102,-2.698242 2.77733,2e-5 4.939437,0.791035 6.486328,2.373047 1.546856,1.582047 2.320293,3.767592 2.320312,6.556641 l 0,2.601562 -12.673828,0 c 0.05859,1.523445 0.509758,2.712897 1.353516,3.56836 0.843741,0.855472 2.027333,1.283206 3.550781,1.283203 1.183581,3e-6 2.30272,-0.123043 3.357422,-0.369141 1.054671,-0.246089 2.156233,-0.638667 3.304687,-1.177734 l 0,4.148437 c -0.937517,0.468751 -1.939469,0.817383 -3.005859,1.045899 -1.066421,0.228515 -2.367201,0.342773 -3.902344,0.342773 z"
         style="font-size:36px;font-weight:600;fill:#888888;-inkscape-font-specification:Open Sans Semi-Bold"
         id="path3021"
         inkscape:connector-curvature="0" />
      <path
         d="m -46.251099,-58.208618 5.501953,0 -8.736328,25.699219 -5.941406,0 -8.71875,-25.699219 5.501953,0 4.833985,15.292969 c 0.26952,0.902353 0.54784,1.95411 0.834961,3.155273 0.287097,1.201178 0.465808,2.036138 0.536132,2.504883 0.128895,-1.078119 0.568347,-2.964836 1.31836,-5.660156 z"
         style="font-size:36px;font-weight:600;fill:#888888;-inkscape-font-specification:Open Sans Semi-Bold"
         id="path3023"
         inkscape:connector-curvature="0" />
      <path
         d="m -38.147583,-57.241821 c -3e-6,-1.746068 0.972653,-2.619114 2.917969,-2.619141 1.945305,2.7e-5 2.91796,0.873073 2.917968,2.619141 -8e-6,0.832055 -0.243172,1.479515 -0.729492,1.942383 -0.486335,0.462912 -1.215826,0.694358 -2.188476,0.694335 -1.945316,2.3e-5 -2.917972,-0.878883 -2.917969,-2.636718 z m 5.589844,24.732422 -5.361328,0 0,-19.652344 5.361328,0 z"
         style="font-size:36px;font-weight:600;fill:#888888;-inkscape-font-specification:Open Sans Semi-Bold"
         id="path3025"
         inkscape:connector-curvature="0" />
      <path
         d="m -8.8096924,-32.509399 -5.3613286,0 0,-11.478516 c -1.5e-5,-1.417956 -0.251968,-2.481431 -0.755859,-3.19043 -0.50392,-0.708969 -1.306654,-1.063461 -2.408203,-1.063476 -1.500011,1.5e-5 -2.583994,0.500992 -3.251953,1.502929 -0.667977,1.001967 -1.001961,2.663098 -1.001953,4.983399 l 0,9.246094 -5.361328,0 0,-19.652344 4.095703,0 0.720703,2.513672 0.298828,0 c 0.597648,-0.949201 1.420889,-1.666974 2.469727,-2.153321 1.048816,-0.486308 2.241198,-0.729472 3.577148,-0.729492 2.28514,2e-5 4.019513,0.618184 5.203125,1.854492 1.1835734,1.236345 1.7753697,3.020523 1.7753906,5.352539 z"
         style="font-size:36px;font-weight:600;fill:#888888;-inkscape-font-specification:Open Sans Semi-Bold"
         id="path3027"
         inkscape:connector-curvature="0" />
      <path
         d="m 4.7254639,-32.157837 c -6.1171922,0 -9.1757829,-3.357419 -9.1757813,-10.072266 -1.6e-6,-3.33983 0.8320288,-5.891585 2.4960938,-7.655273 1.66405669,-1.763653 4.0488199,-2.645488 7.1542968,-2.645508 2.273424,2e-5 4.3124845,0.445332 6.1171878,1.335938 l -1.5820315,4.148437 c -0.843765,-0.339829 -1.6289204,-0.618149 -2.3554688,-0.834961 -0.7265752,-0.216781 -1.453137,-0.325179 -2.1796875,-0.325195 -2.7890709,1.6e-5 -4.1836008,1.980482 -4.1835937,5.941406 -7.1e-6,3.843756 1.3945228,5.765629 4.1835937,5.765625 1.0312377,4e-6 1.9863149,-0.137691 2.8652344,-0.413086 0.8788913,-0.275386 1.7577966,-0.706049 2.6367184,-1.291992 l 0,4.587891 c -0.867203,0.550782 -1.7431787,0.931641 -2.6279293,1.142578 -0.8847789,0.210937 -2.0009887,0.316406 -3.3486328,0.316406 z"
         style="font-size:36px;font-weight:600;fill:#888888;-inkscape-font-specification:Open Sans Semi-Bold"
         id="path3029"
         inkscape:connector-curvature="0" />
      <path
         d="m 23.375854,-48.716431 c -1.136728,1.7e-5 -2.027352,0.360368 -2.671875,1.081055 -0.644538,0.720718 -1.013679,1.743177 -1.107421,3.067383 l 7.523437,0 c -0.02345,-1.324206 -0.369155,-2.346665 -1.037109,-3.067383 -0.667982,-0.720687 -1.570325,-1.081038 -2.707032,-1.081055 z m 0.75586,16.558594 c -3.164071,0 -5.636725,-0.873046 -7.417969,-2.619141 -1.781252,-1.746089 -2.671876,-4.218743 -2.671875,-7.417968 -10e-7,-3.292956 0.82324,-5.838852 2.469727,-7.637696 1.646478,-1.798809 3.922843,-2.698222 6.829101,-2.698242 2.77733,2e-5 4.939438,0.791035 6.486328,2.373047 1.546856,1.582047 2.320293,3.767592 2.320313,6.556641 l 0,2.601562 -12.673828,0 c 0.05859,1.523445 0.509758,2.712897 1.353515,3.56836 0.843741,0.855472 2.027334,1.283206 3.550782,1.283203 1.18358,3e-6 2.30272,-0.123043 3.357421,-0.369141 1.054672,-0.246089 2.156233,-0.638667 3.304688,-1.177734 l 0,4.148437 c -0.937518,0.468751 -1.93947,0.817383 -3.005859,1.045899 -1.066421,0.228515 -2.367201,0.342773 -3.902344,0.342773 z"
         style="font-size:36px;font-weight:600;fill:#888888;-inkscape-font-specification:Open Sans Semi-Bold"
         id="path3031"
         inkscape:connector-curvature="0" />
      <path
         d="m 54.682495,-32.509399 -5.361328,0 0,-11.478516 c -1.6e-5,-1.417956 -0.251968,-2.481431 -0.755859,-3.19043 -0.503921,-0.708969 -1.306655,-1.063461 -2.408204,-1.063476 -1.50001,1.5e-5 -2.583994,0.500992 -3.251953,1.502929 -0.667977,1.001967 -1.001961,2.663098 -1.001953,4.983399 l 0,9.246094 -5.361328,0 0,-19.652344 4.095703,0 0.720703,2.513672 0.298828,0 c 0.597648,-0.949201 1.42089,-1.666974 2.469727,-2.153321 1.048817,-0.486308 2.241198,-0.729472 3.577148,-0.729492 2.28514,2e-5 4.019514,0.618184 5.203125,1.854492 1.183574,1.236345 1.77537,3.020523 1.775391,5.352539 z"
         style="font-size:36px;font-weight:600;fill:#888888;-inkscape-font-specification:Open Sans Semi-Bold"
         id="path3033"
         inkscape:connector-curvature="0" />
      <path
         d="m 68.516479,-36.429321 c 0.937488,4e-6 2.062487,-0.205074 3.375,-0.615235 l 0,3.990235 c -1.33595,0.597656 -2.976573,0.896484 -4.921875,0.896484 -2.144538,0 -3.70606,-0.541992 -4.68457,-1.625976 -0.978519,-1.083982 -1.467777,-2.709957 -1.467773,-4.87793 l 0,-9.47461 -2.566407,0 0,-2.267578 2.953125,-1.792968 1.546875,-4.148438 3.427735,0 0,4.183594 5.501953,0 0,4.02539 -5.501953,0 0,9.47461 c -9e-6,0.761724 0.213858,1.324223 0.641601,1.6875 0.427725,0.363285 0.993154,0.544926 1.696289,0.544922 z"
         style="font-size:36px;font-weight:600;fill:#888888;-inkscape-font-specification:Open Sans Semi-Bold"
         id="path3035"
         inkscape:connector-curvature="0" />
      <path
         d="m 85.619995,-58.208618 7.998047,0 c 3.644516,2.6e-5 6.290022,0.51858 7.936528,1.555664 1.64646,1.037132 2.4697,2.686545 2.46972,4.948242 -2e-5,1.535174 -0.36037,2.794938 -1.08105,3.779297 -0.72073,0.984389 -1.67873,1.576186 -2.87403,1.775391 l 0,0.175781 c 1.62889,0.363294 2.80369,1.042981 3.52442,2.039062 0.72068,0.996105 1.08103,2.320322 1.08105,3.972657 -2e-5,2.343755 -0.8467,4.171878 -2.54004,5.484375 -1.69337,1.3125 -3.993176,1.96875 -6.899411,1.96875 l -9.615234,0 z m 5.449219,10.177734 3.164062,0 c 1.47655,1.6e-5 2.545884,-0.2285 3.208008,-0.685547 0.662094,-0.457014 0.993148,-1.212873 0.993164,-2.267578 -1.6e-5,-0.984355 -0.360367,-1.690409 -1.081054,-2.118164 -0.720718,-0.427713 -1.860365,-0.64158 -3.418946,-0.641601 l -2.865234,0 z m 0,4.324219 0,6.697266 3.550781,0 c 1.499986,4e-6 2.607407,-0.287105 3.322266,-0.861329 0.714827,-0.574212 1.072249,-1.453118 1.072265,-2.636718 -1.6e-5,-2.132803 -1.523452,-3.199208 -4.570312,-3.199219 z"
         style="font-size:36px;font-weight:600;fill:#888888;-inkscape-font-specification:Open Sans Semi-Bold"
         id="path3037"
         inkscape:connector-curvature="0" />
      <path
         d="m 120.35437,-52.530884 c 0.72655,2e-5 1.33006,0.05275 1.81055,0.158203 l -0.4043,5.027344 c -0.43361,-0.117172 -0.96095,-0.175766 -1.58203,-0.175781 -1.71095,1.5e-5 -3.04396,0.439468 -3.99902,1.318359 -0.95509,0.878919 -1.43263,2.109387 -1.43262,3.691406 l 0,10.001954 -5.36133,0 0,-19.652344 4.06055,0 0.79101,3.304687 0.26367,0 c 0.60937,-1.101545 1.43261,-1.989239 2.46973,-2.663086 1.0371,-0.673808 2.16503,-1.010722 3.38379,-1.010742 z"
         style="font-size:36px;font-weight:600;fill:#888888;-inkscape-font-specification:Open Sans Semi-Bold"
         id="path3039"
         inkscape:connector-curvature="0" />
      <path
         d="m 133.9071,-48.716431 c -1.13672,1.7e-5 -2.02735,0.360368 -2.67187,1.081055 -0.64454,0.720718 -1.01368,1.743177 -1.10742,3.067383 l 7.52344,0 c -0.0235,-1.324206 -0.36916,-2.346665 -1.03711,-3.067383 -0.66799,-0.720687 -1.57033,-1.081038 -2.70704,-1.081055 z m 0.75586,16.558594 c -3.16407,0 -5.63672,-0.873046 -7.41796,-2.619141 -1.78126,-1.746089 -2.67188,-4.218743 -2.67188,-7.417968 0,-3.292956 0.82324,-5.838852 2.46973,-7.637696 1.64648,-1.798809 3.92284,-2.698222 6.8291,-2.698242 2.77733,2e-5 4.93944,0.791035 6.48633,2.373047 1.54685,1.582047 2.32029,3.767592 2.32031,6.556641 l 0,2.601562 -12.67383,0 c 0.0586,1.523445 0.50976,2.712897 1.35352,3.56836 0.84374,0.855472 2.02733,1.283206 3.55078,1.283203 1.18358,3e-6 2.30272,-0.123043 3.35742,-0.369141 1.05467,-0.246089 2.15623,-0.638667 3.30469,-1.177734 l 0,4.148437 c -0.93752,0.468751 -1.93947,0.817383 -3.00586,1.045899 -1.06642,0.228515 -2.3672,0.342773 -3.90235,0.342773 z"
         style="font-size:36px;font-weight:600;fill:#888888;-inkscape-font-specification:Open Sans Semi-Bold"
         id="path3041"
         inkscape:connector-curvature="0" />
      <path
         d="m 164.66882,-32.509399 -5.36132,0 0,-11.478516 c -2e-5,-1.417956 -0.23732,-2.481431 -0.71192,-3.19043 -0.47462,-0.708969 -1.22169,-1.063461 -2.24121,-1.063476 -1.3711,1.5e-5 -2.3672,0.503921 -2.98828,1.511718 -0.6211,1.007826 -0.93165,2.666028 -0.93164,4.97461 l 0,9.246094 -5.36133,0 0,-19.652344 4.0957,0 0.72071,2.513672 0.29882,0 c 0.52734,-0.902326 1.28906,-1.60838 2.28516,-2.118164 0.99608,-0.509746 2.13866,-0.764629 3.42774,-0.764649 2.94138,2e-5 4.93357,0.960957 5.97656,2.882813 l 0.47461,0 c 0.52732,-0.914045 1.30369,-1.623028 2.3291,-2.126953 1.02537,-0.503887 2.18259,-0.75584 3.47168,-0.75586 2.22653,2e-5 3.9111,0.571309 5.05371,1.713867 1.14255,1.142596 1.71383,2.973649 1.71387,5.493164 l 0,12.814454 -5.37891,0 0,-11.478516 c -3e-5,-1.417956 -0.23733,-2.481431 -0.71191,-3.19043 -0.47464,-0.708969 -1.22171,-1.063461 -2.24121,-1.063476 -1.31253,1.5e-5 -2.29397,0.468765 -2.94434,1.40625 -0.65041,0.937513 -0.97561,2.425793 -0.97559,4.464843 z"
         style="font-size:36px;font-weight:600;fill:#888888;-inkscape-font-specification:Open Sans Semi-Bold"
         id="path3043"
         inkscape:connector-curvature="0" />
      <path
         d="m 190.57898,-48.716431 c -1.13673,1.7e-5 -2.02735,0.360368 -2.67188,1.081055 -0.64453,0.720718 -1.01367,1.743177 -1.10742,3.067383 l 7.52344,0 c -0.0234,-1.324206 -0.36915,-2.346665 -1.03711,-3.067383 -0.66798,-0.720687 -1.57032,-1.081038 -2.70703,-1.081055 z m 0.75586,16.558594 c -3.16407,0 -5.63673,-0.873046 -7.41797,-2.619141 -1.78125,-1.746089 -2.67188,-4.218743 -2.67187,-7.417968 -1e-5,-3.292956 0.82323,-5.838852 2.46972,-7.637696 1.64648,-1.798809 3.92285,-2.698222 6.8291,-2.698242 2.77733,2e-5 4.93944,0.791035 6.48633,2.373047 1.54686,1.582047 2.32029,3.767592 2.32031,6.556641 l 0,2.601562 -12.67382,0 c 0.0586,1.523445 0.50975,2.712897 1.35351,3.56836 0.84374,0.855472 2.02733,1.283206 3.55078,1.283203 1.18358,3e-6 2.30272,-0.123043 3.35742,-0.369141 1.05468,-0.246089 2.15624,-0.638667 3.30469,-1.177734 l 0,4.148437 c -0.93752,0.468751 -1.93947,0.817383 -3.00586,1.045899 -1.06642,0.228515 -2.3672,0.342773 -3.90234,0.342773 z"
         style="font-size:36px;font-weight:600;fill:#888888;-inkscape-font-specification:Open Sans Semi-Bold"
         id="path3045"
         inkscape:connector-curvature="0" />
      <path
         d="m 214.71375,-52.530884 c 0.72654,2e-5 1.33006,0.05275 1.81054,0.158203 l -0.40429,5.027344 c -0.43361,-0.117172 -0.96096,-0.175766 -1.58204,-0.175781 -1.71095,1.5e-5 -3.04395,0.439468 -3.99902,1.318359 -0.95509,0.878919 -1.43262,2.109387 -1.43262,3.691406 l 0,10.001954 -5.36132,0 0,-19.652344 4.06054,0 0.79102,3.304687 0.26367,0 c 0.60937,-1.101545 1.43261,-1.989239 2.46973,-2.663086 1.03709,-0.673808 2.16502,-1.010722 3.38379,-1.010742 z"
         style="font-size:36px;font-weight:600;fill:#888888;-inkscape-font-specification:Open Sans Semi-Bold"
         id="path3047"
         inkscape:connector-curvature="0" />
    </g>
  </g>
</svg>
